<svg width="1337" height="705" viewBox="0 0 1337 705" fill="none" xmlns="http://www.w3.org/2000/svg">
<rect width="1337" height="705" fill="#D9D9D9"/>
<path d="M183.188 183.75C180.288 177.65 176.088 172.95 170.588 169.65C165.088 166.25 158.688 164.55 151.388 164.55C144.088 164.55 137.488 166.25 131.588 169.65C125.788 172.95 121.188 177.75 117.788 184.05C114.488 190.25 112.838 197.45 112.838 205.65C112.838 213.85 114.488 221.05 117.788 227.25C121.188 233.45 125.788 238.25 131.588 241.65C137.488 244.95 144.088 246.6 151.388 246.6C161.588 246.6 169.988 243.55 176.588 237.45C183.188 231.35 187.038 223.1 188.138 212.7H146.438V201.6H202.688V212.1C201.888 220.7 199.188 228.6 194.588 235.8C189.988 242.9 183.938 248.55 176.438 252.75C168.938 256.85 160.588 258.9 151.388 258.9C141.688 258.9 132.838 256.65 124.838 252.15C116.838 247.55 110.488 241.2 105.788 233.1C101.188 225 98.8875 215.85 98.8875 205.65C98.8875 195.45 101.188 186.3 105.788 178.2C110.488 170 116.838 163.65 124.838 159.15C132.838 154.55 141.688 152.25 151.388 152.25C162.488 152.25 172.288 155 180.788 160.5C189.388 166 195.638 173.75 199.538 183.75H183.188ZM215.636 216.6C215.636 208.2 217.336 200.85 220.736 194.55C224.136 188.15 228.786 183.2 234.686 179.7C240.686 176.2 247.336 174.45 254.636 174.45C261.836 174.45 268.086 176 273.386 179.1C278.686 182.2 282.636 186.1 285.236 190.8V175.8H299.036V258H285.236V242.7C282.536 247.5 278.486 251.5 273.086 254.7C267.786 257.8 261.586 259.35 254.486 259.35C247.186 259.35 240.586 257.55 234.686 253.95C228.786 250.35 224.136 245.3 220.736 238.8C217.336 232.3 215.636 224.9 215.636 216.6ZM285.236 216.75C285.236 210.55 283.986 205.15 281.486 200.55C278.986 195.95 275.586 192.45 271.286 190.05C267.086 187.55 262.436 186.3 257.336 186.3C252.236 186.3 247.586 187.5 243.386 189.9C239.186 192.3 235.836 195.8 233.336 200.4C230.836 205 229.586 210.4 229.586 216.6C229.586 222.9 230.836 228.4 233.336 233.1C235.836 237.7 239.186 241.25 243.386 243.75C247.586 246.15 252.236 247.35 257.336 247.35C262.436 247.35 267.086 246.15 271.286 243.75C275.586 241.25 278.986 237.7 281.486 233.1C283.986 228.4 285.236 222.95 285.236 216.75ZM420.953 174.3C427.353 174.3 433.053 175.65 438.053 178.35C443.053 180.95 447.003 184.9 449.903 190.2C452.803 195.5 454.253 201.95 454.253 209.55V258H440.753V211.5C440.753 203.3 438.703 197.05 434.603 192.75C430.603 188.35 425.153 186.15 418.253 186.15C411.153 186.15 405.503 188.45 401.303 193.05C397.103 197.55 395.003 204.1 395.003 212.7V258H381.503V211.5C381.503 203.3 379.453 197.05 375.353 192.75C371.353 188.35 365.903 186.15 359.003 186.15C351.903 186.15 346.253 188.45 342.053 193.05C337.853 197.55 335.753 204.1 335.753 212.7V258H322.103V175.8H335.753V187.65C338.453 183.35 342.053 180.05 346.553 177.75C351.153 175.45 356.203 174.3 361.703 174.3C368.603 174.3 374.703 175.85 380.003 178.95C385.303 182.05 389.253 186.6 391.853 192.6C394.153 186.8 397.953 182.3 403.253 179.1C408.553 175.9 414.453 174.3 420.953 174.3ZM490.294 191.1C493.094 186.2 497.194 182.2 502.594 179.1C507.994 176 514.144 174.45 521.044 174.45C528.444 174.45 535.094 176.2 540.994 179.7C546.894 183.2 551.544 188.15 554.944 194.55C558.344 200.85 560.044 208.2 560.044 216.6C560.044 224.9 558.344 232.3 554.944 238.8C551.544 245.3 546.844 250.35 540.844 253.95C534.944 257.55 528.344 259.35 521.044 259.35C513.944 259.35 507.694 257.8 502.294 254.7C496.994 251.6 492.994 247.65 490.294 242.85V258H476.644V147H490.294V191.1ZM546.094 216.6C546.094 210.4 544.844 205 542.344 200.4C539.844 195.8 536.444 192.3 532.144 189.9C527.944 187.5 523.294 186.3 518.194 186.3C513.194 186.3 508.544 187.55 504.244 190.05C500.044 192.45 496.644 196 494.044 200.7C491.544 205.3 490.294 210.65 490.294 216.75C490.294 222.95 491.544 228.4 494.044 233.1C496.644 237.7 500.044 241.25 504.244 243.75C508.544 246.15 513.194 247.35 518.194 247.35C523.294 247.35 527.944 246.15 532.144 243.75C536.444 241.25 539.844 237.7 542.344 233.1C544.844 228.4 546.094 222.9 546.094 216.6ZM572.911 216.6C572.911 208.2 574.611 200.85 578.011 194.55C581.411 188.15 586.061 183.2 591.961 179.7C597.961 176.2 604.611 174.45 611.911 174.45C619.111 174.45 625.361 176 630.661 179.1C635.961 182.2 639.911 186.1 642.511 190.8V175.8H656.311V258H642.511V242.7C639.811 247.5 635.761 251.5 630.361 254.7C625.061 257.8 618.861 259.35 611.761 259.35C604.461 259.35 597.861 257.55 591.961 253.95C586.061 250.35 581.411 245.3 578.011 238.8C574.611 232.3 572.911 224.9 572.911 216.6ZM642.511 216.75C642.511 210.55 641.261 205.15 638.761 200.55C636.261 195.95 632.861 192.45 628.561 190.05C624.361 187.55 619.711 186.3 614.611 186.3C609.511 186.3 604.861 187.5 600.661 189.9C596.461 192.3 593.111 195.8 590.611 200.4C588.111 205 586.861 210.4 586.861 216.6C586.861 222.9 588.111 228.4 590.611 233.1C593.111 237.7 596.461 241.25 600.661 243.75C604.861 246.15 609.511 247.35 614.611 247.35C619.711 247.35 624.361 246.15 628.561 243.75C632.861 241.25 636.261 237.7 638.761 233.1C641.261 228.4 642.511 222.95 642.511 216.75ZM693.028 189.15C695.428 184.45 698.828 180.8 703.228 178.2C707.728 175.6 713.178 174.3 719.578 174.3V188.4H715.978C700.678 188.4 693.028 196.7 693.028 213.3V258H679.378V175.8H693.028V189.15ZM788.975 191.1C791.775 186.2 795.875 182.2 801.275 179.1C806.675 176 812.825 174.45 819.725 174.45C827.125 174.45 833.775 176.2 839.675 179.7C845.575 183.2 850.225 188.15 853.625 194.55C857.025 200.85 858.725 208.2 858.725 216.6C858.725 224.9 857.025 232.3 853.625 238.8C850.225 245.3 845.525 250.35 839.525 253.95C833.625 257.55 827.025 259.35 819.725 259.35C812.625 259.35 806.375 257.8 800.975 254.7C795.675 251.6 791.675 247.65 788.975 242.85V258H775.325V147H788.975V191.1ZM844.775 216.6C844.775 210.4 843.525 205 841.025 200.4C838.525 195.8 835.125 192.3 830.825 189.9C826.625 187.5 821.975 186.3 816.875 186.3C811.875 186.3 807.225 187.55 802.925 190.05C798.725 192.45 795.325 196 792.725 200.7C790.225 205.3 788.975 210.65 788.975 216.75C788.975 222.95 790.225 228.4 792.725 233.1C795.325 237.7 798.725 241.25 802.925 243.75C807.225 246.15 811.875 247.35 816.875 247.35C821.975 247.35 826.625 246.15 830.825 243.75C835.125 241.25 838.525 237.7 841.025 233.1C843.525 228.4 844.775 222.9 844.775 216.6ZM951.693 213.75C951.693 216.35 951.543 219.1 951.243 222H885.543C886.043 230.1 888.793 236.45 893.793 241.05C898.893 245.55 905.043 247.8 912.243 247.8C918.143 247.8 923.043 246.45 926.943 243.75C930.943 240.95 933.743 237.25 935.343 232.65H950.043C947.843 240.55 943.443 247 936.843 252C930.243 256.9 922.043 259.35 912.243 259.35C904.443 259.35 897.443 257.6 891.243 254.1C885.143 250.6 880.343 245.65 876.843 239.25C873.343 232.75 871.593 225.25 871.593 216.75C871.593 208.25 873.293 200.8 876.693 194.4C880.093 188 884.843 183.1 890.943 179.7C897.143 176.2 904.243 174.45 912.243 174.45C920.043 174.45 926.943 176.15 932.943 179.55C938.943 182.95 943.543 187.65 946.743 193.65C950.043 199.55 951.693 206.25 951.693 213.75ZM937.593 210.9C937.593 205.7 936.443 201.25 934.143 197.55C931.843 193.75 928.693 190.9 924.693 189C920.793 187 916.443 186 911.643 186C904.743 186 898.843 188.2 893.943 192.6C889.143 197 886.393 203.1 885.693 210.9H937.593ZM983.36 147V258H969.71V147H983.36ZM1079.52 175.8V258H1065.87V245.85C1063.27 250.05 1059.62 253.35 1054.92 255.75C1050.32 258.05 1045.22 259.2 1039.62 259.2C1033.22 259.2 1027.47 257.9 1022.37 255.3C1017.27 252.6 1013.22 248.6 1010.22 243.3C1007.32 238 1005.87 231.55 1005.87 223.95V175.8H1019.37V222.15C1019.37 230.25 1021.42 236.5 1025.52 240.9C1029.62 245.2 1035.22 247.35 1042.32 247.35C1049.62 247.35 1055.37 245.1 1059.57 240.6C1063.77 236.1 1065.87 229.55 1065.87 220.95V175.8H1079.52ZM1201.42 174.3C1207.82 174.3 1213.52 175.65 1218.52 178.35C1223.52 180.95 1227.47 184.9 1230.37 190.2C1233.27 195.5 1234.72 201.95 1234.72 209.55V258H1221.22V211.5C1221.22 203.3 1219.17 197.05 1215.07 192.75C1211.07 188.35 1205.62 186.15 1198.72 186.15C1191.62 186.15 1185.97 188.45 1181.77 193.05C1177.57 197.55 1175.47 204.1 1175.47 212.7V258H1161.97V211.5C1161.97 203.3 1159.92 197.05 1155.82 192.75C1151.82 188.35 1146.37 186.15 1139.47 186.15C1132.37 186.15 1126.72 188.45 1122.52 193.05C1118.32 197.55 1116.22 204.1 1116.22 212.7V258H1102.57V175.8H1116.22V187.65C1118.92 183.35 1122.52 180.05 1127.02 177.75C1131.62 175.45 1136.67 174.3 1142.17 174.3C1149.07 174.3 1155.17 175.85 1160.47 178.95C1165.77 182.05 1169.72 186.6 1172.32 192.6C1174.62 186.8 1178.42 182.3 1183.72 179.1C1189.02 175.9 1194.92 174.3 1201.42 174.3ZM389.876 412.05V460.5C389.876 464.5 390.726 467.35 392.426 469.05C394.126 470.65 397.076 471.45 401.276 471.45H411.326V483H399.026C391.426 483 385.726 481.25 381.926 477.75C378.126 474.25 376.226 468.5 376.226 460.5V412.05H365.576V400.8H376.226V380.1H389.876V400.8H411.326V412.05H389.876ZM502.864 438.75C502.864 441.35 502.714 444.1 502.414 447H436.714C437.214 455.1 439.964 461.45 444.964 466.05C450.064 470.55 456.214 472.8 463.414 472.8C469.314 472.8 474.214 471.45 478.114 468.75C482.114 465.95 484.914 462.25 486.514 457.65H501.214C499.014 465.55 494.614 472 488.014 477C481.414 481.9 473.214 484.35 463.414 484.35C455.614 484.35 448.614 482.6 442.414 479.1C436.314 475.6 431.514 470.65 428.014 464.25C424.514 457.75 422.764 450.25 422.764 441.75C422.764 433.25 424.464 425.8 427.864 419.4C431.264 413 436.014 408.1 442.114 404.7C448.314 401.2 455.414 399.45 463.414 399.45C471.214 399.45 478.114 401.15 484.114 404.55C490.114 407.95 494.714 412.65 497.914 418.65C501.214 424.55 502.864 431.25 502.864 438.75ZM488.764 435.9C488.764 430.7 487.614 426.25 485.314 422.55C483.014 418.75 479.864 415.9 475.864 414C471.964 412 467.614 411 462.814 411C455.914 411 450.014 413.2 445.114 417.6C440.314 422 437.564 428.1 436.864 435.9H488.764ZM534.532 414.15C536.932 409.45 540.332 405.8 544.732 403.2C549.232 400.6 554.682 399.3 561.082 399.3V413.4H557.482C542.182 413.4 534.532 421.7 534.532 438.3V483H520.882V400.8H534.532V414.15ZM605.939 484.35C599.639 484.35 593.989 483.3 588.989 481.2C583.989 479 580.039 476 577.139 472.2C574.239 468.3 572.639 463.85 572.339 458.85H586.439C586.839 462.95 588.739 466.3 592.139 468.9C595.639 471.5 600.189 472.8 605.789 472.8C610.989 472.8 615.089 471.65 618.089 469.35C621.089 467.05 622.589 464.15 622.589 460.65C622.589 457.05 620.989 454.4 617.789 452.7C614.589 450.9 609.639 449.15 602.939 447.45C596.839 445.85 591.839 444.25 587.939 442.65C584.139 440.95 580.839 438.5 578.039 435.3C575.339 432 573.989 427.7 573.989 422.4C573.989 418.2 575.239 414.35 577.739 410.85C580.239 407.35 583.789 404.6 588.389 402.6C592.989 400.5 598.239 399.45 604.139 399.45C613.239 399.45 620.589 401.75 626.189 406.35C631.789 410.95 634.789 417.25 635.189 425.25H621.539C621.239 420.95 619.489 417.5 616.289 414.9C613.189 412.3 608.989 411 603.689 411C598.789 411 594.889 412.05 591.989 414.15C589.089 416.25 587.639 419 587.639 422.4C587.639 425.1 588.489 427.35 590.189 429.15C591.989 430.85 594.189 432.25 596.789 433.35C599.489 434.35 603.189 435.5 607.889 436.8C613.789 438.4 618.589 440 622.289 441.6C625.989 443.1 629.139 445.4 631.739 448.5C634.439 451.6 635.839 455.65 635.939 460.65C635.939 465.15 634.689 469.2 632.189 472.8C629.689 476.4 626.139 479.25 621.539 481.35C617.039 483.35 611.839 484.35 605.939 484.35ZM730.208 438.75C730.208 441.35 730.058 444.1 729.758 447H664.058C664.558 455.1 667.308 461.45 672.308 466.05C677.408 470.55 683.558 472.8 690.758 472.8C696.658 472.8 701.558 471.45 705.458 468.75C709.458 465.95 712.258 462.25 713.858 457.65H728.558C726.358 465.55 721.958 472 715.358 477C708.758 481.9 700.558 484.35 690.758 484.35C682.958 484.35 675.958 482.6 669.758 479.1C663.658 475.6 658.858 470.65 655.358 464.25C651.858 457.75 650.108 450.25 650.108 441.75C650.108 433.25 651.808 425.8 655.208 419.4C658.608 413 663.358 408.1 669.458 404.7C675.658 401.2 682.758 399.45 690.758 399.45C698.558 399.45 705.458 401.15 711.458 404.55C717.458 407.95 722.058 412.65 725.258 418.65C728.558 424.55 730.208 431.25 730.208 438.75ZM716.108 435.9C716.108 430.7 714.958 426.25 712.658 422.55C710.358 418.75 707.208 415.9 703.208 414C699.308 412 694.958 411 690.158 411C683.258 411 677.358 413.2 672.458 417.6C667.658 422 664.908 428.1 664.208 435.9H716.108ZM743.126 441.6C743.126 433.2 744.826 425.85 748.226 419.55C751.626 413.15 756.276 408.2 762.176 404.7C768.176 401.2 774.876 399.45 782.276 399.45C788.676 399.45 794.626 400.95 800.126 403.95C805.626 406.85 809.826 410.7 812.726 415.5V372H826.526V483H812.726V467.55C810.026 472.45 806.026 476.5 800.726 479.7C795.426 482.8 789.226 484.35 782.126 484.35C774.826 484.35 768.176 482.55 762.176 478.95C756.276 475.35 751.626 470.3 748.226 463.8C744.826 457.3 743.126 449.9 743.126 441.6ZM812.726 441.75C812.726 435.55 811.476 430.15 808.976 425.55C806.476 420.95 803.076 417.45 798.776 415.05C794.576 412.55 789.926 411.3 784.826 411.3C779.726 411.3 775.076 412.5 770.876 414.9C766.676 417.3 763.326 420.8 760.826 425.4C758.326 430 757.076 435.4 757.076 441.6C757.076 447.9 758.326 453.4 760.826 458.1C763.326 462.7 766.676 466.25 770.876 468.75C775.076 471.15 779.726 472.35 784.826 472.35C789.926 472.35 794.576 471.15 798.776 468.75C803.076 466.25 806.476 462.7 808.976 458.1C811.476 453.4 812.726 447.95 812.726 441.75ZM856.643 387.45C854.043 387.45 851.843 386.55 850.043 384.75C848.243 382.95 847.343 380.75 847.343 378.15C847.343 375.55 848.243 373.35 850.043 371.55C851.843 369.75 854.043 368.85 856.643 368.85C859.143 368.85 861.243 369.75 862.943 371.55C864.743 373.35 865.643 375.55 865.643 378.15C865.643 380.75 864.743 382.95 862.943 384.75C861.243 386.55 859.143 387.45 856.643 387.45ZM863.243 400.8V483H849.593V400.8H863.243ZM881.407 441.6C881.407 433.2 883.107 425.85 886.507 419.55C889.907 413.15 894.557 408.2 900.457 404.7C906.457 401.2 913.107 399.45 920.407 399.45C927.607 399.45 933.857 401 939.157 404.1C944.457 407.2 948.407 411.1 951.007 415.8V400.8H964.807V483H951.007V467.7C948.307 472.5 944.257 476.5 938.857 479.7C933.557 482.8 927.357 484.35 920.257 484.35C912.957 484.35 906.357 482.55 900.457 478.95C894.557 475.35 889.907 470.3 886.507 463.8C883.107 457.3 881.407 449.9 881.407 441.6ZM951.007 441.75C951.007 435.55 949.757 430.15 947.257 425.55C944.757 420.95 941.357 417.45 937.057 415.05C932.857 412.55 928.207 411.3 923.107 411.3C918.007 411.3 913.357 412.5 909.157 414.9C904.957 417.3 901.607 420.8 899.107 425.4C896.607 430 895.357 435.4 895.357 441.6C895.357 447.9 896.607 453.4 899.107 458.1C901.607 462.7 904.957 466.25 909.157 468.75C913.357 471.15 918.007 472.35 923.107 472.35C928.207 472.35 932.857 471.15 937.057 468.75C941.357 466.25 944.757 462.7 947.257 458.1C949.757 453.4 951.007 447.95 951.007 441.75Z" fill="black"/>
</svg>
