<svg width="700" height="499" viewBox="0 0 700 499" fill="none" xmlns="http://www.w3.org/2000/svg">
<path d="M268.275 0.921387L157.583 77.5042L222.76 100.28L153.419 124.504L129.195 193.773L104.971 124.504L94.8324 120.883L0 186.603H77.126V343.462C109.714 357.693 213.237 386.914 361.008 277.67C353.943 265.901 356.7 250.717 367.453 242.185L384.109 229.004L397.615 217.091C407.748 208.257 416.532 197.985 423.686 186.603C427.307 181.28 430.349 175.74 433.354 169.874C440.29 156.176 446.255 142.007 451.205 127.473L268.275 0.921387ZM262.627 293.747H213.418V244.502H262.627V293.747ZM262.627 235.812H213.418V186.567H262.627V235.812ZM321.539 293.747H272.258V244.502H321.503L321.539 293.747ZM321.539 235.812H272.258V186.567H321.503L321.539 235.812Z" fill="#80CAEF"/>
<path d="M693.881 323.04C690.984 312.395 687.689 302.039 684.068 292.045L682.547 287.881L682.149 286.976L674.907 268.871C664.975 246.024 652.849 224.196 638.697 203.694L631.999 194.135L630.659 192.035L630.116 191.238L629.79 190.731L619.869 179.035C603.863 159.307 585.896 141.254 566.242 125.156L565.663 124.649L565.844 124.323L558.602 118.855L553.135 114.365L552.881 114.619H552.7C537.607 103.282 521.718 93.045 505.157 83.9857L484.518 72.7246L478.073 95.3193C474.053 109.405 469.781 123.454 464.856 137.141C460.891 148.336 456.359 159.321 451.278 170.055C448.526 175.849 445.629 181.389 442.587 186.784C433.695 202.857 422.066 217.255 408.225 229.33L394.32 241.641L398.195 246.457L459.389 324.018L510.878 389.195L515.948 395.531L528.73 384.669L530.431 383.437C569.175 354.977 623.49 349.002 676.609 346.866L700 345.816L693.881 323.04ZM519.315 368.085L518.446 368.302L509.213 356.57L534.559 333.794L503.745 349.582L475.828 314.278L508.706 279.661L469.527 306.311L459.389 293.421L436.866 264.888L459.389 236.319L464.567 229.801L459.389 234.617L432.123 259.058L420.21 244.031C420.241 243.888 420.241 243.74 420.21 243.597C435.978 229.9 449.183 213.508 459.208 195.185C460.837 192.469 462.358 189.572 463.806 186.748C470.295 174.287 475.909 161.389 480.607 148.149C486.654 132.036 491.47 115.886 495.996 100.425C510.274 107.859 523.943 116.406 536.877 125.989L516.346 172.409L512.399 181.244L519.243 174.509L554.33 139.603C573.026 154.937 590.13 172.115 605.385 190.876L566.061 239.288L623.164 214.448C636.664 233.992 648.255 254.787 657.78 276.547L601.619 295.775L666.543 298.49C669.982 308.158 673.133 317.971 675.848 327.928C624.214 330.173 563.816 335.569 519.315 368.085Z" fill="#80CAEF"/>
<path d="M510.733 400.637L499.545 409.508C494.637 413.312 487.587 412.491 483.685 407.661L459.388 376.847L375.6 270.573C373.73 268.249 372.873 265.272 373.22 262.31C373.567 259.348 375.09 256.65 377.447 254.822L388.599 245.95L459.388 335.641L510.733 400.637Z" fill="#80CAEF"/>
<path d="M395.371 321.737C230.618 448.469 123.8 401.397 77.0539 364.79C66.8459 357.076 57.6595 348.097 49.7158 338.067C58.2763 344.343 67.4618 349.718 77.1263 354.108C203.859 413.093 368.431 287.446 368.431 287.446L395.371 321.737Z" fill="#80CAEF"/>
<path d="M428.176 363.233C385.883 399.189 347.176 423.268 311.944 438.222C236.737 470.304 177.39 461.324 132.888 438.222C112.203 427.354 93.3796 413.261 77.1259 396.473C58.1535 377.412 42.2717 355.507 30.0537 331.549C43.6212 348.921 59.4524 364.399 77.1259 377.572C211.571 476.206 372.993 349.328 399.571 326.878L428.176 363.233Z" fill="#80CAEF"/>
<path d="M453.305 394.879C435.987 410.44 417.753 424.95 398.701 438.331C242.639 546.959 142.737 483.701 98.1633 438.331C90.621 430.668 83.6501 422.462 77.3067 413.781C73.6857 408.965 71.839 405.742 71.2959 404.801C73.396 406.865 75.3152 408.893 77.3067 410.812C87.7838 421.083 99.2448 430.301 111.525 438.331C188.325 488.445 271.498 469.217 334.502 438.331C370.627 420.363 404.198 397.666 434.331 370.836L453.305 394.879Z" fill="#80CAEF"/>
<path d="M198.681 100.28L147.191 118.312L129.195 169.766L111.163 118.312L102.871 115.415L59.6729 100.28L111.163 82.2475L129.195 30.7939L147.191 82.2475L149.545 83.0803L198.681 100.28Z" fill="#80CAEF"/>
</svg>
