<?xml version="1.0" encoding="UTF-8"?>
<svg version="1.1" xmlns="http://www.w3.org/2000/svg" width="1141" height="1308">
<path d="M0 0 C5.950736 1.88862011 11.81842349 3.8588775 17.5625 6.3125 C22.85754125 8.57283381 28.21830024 10.58966488 33.625 12.5625 C41.58340906 15.47199281 49.45894088 18.49196778 57.2578125 21.80859375 C65.52381891 25.32037868 73.79189186 28.7435476 82.21899414 31.85107422 C88.56885533 34.19439015 94.84385061 36.70530607 101.11914062 39.24121094 C104.34718492 40.54349049 107.58011946 41.83353034 110.8125 43.125 C111.95332031 43.58132813 113.09414063 44.03765625 114.26953125 44.5078125 C114.85718262 44.74258301 115.44483398 44.97735352 116.05029297 45.21923828 C117.47198279 45.78855509 118.89275836 46.36015648 120.31298828 46.93310547 C126.26293495 49.32775237 132.24694112 51.61741067 138.25 53.875 C144.31245816 56.16519099 150.31761263 58.51584815 156.25 61.125 C161.96300164 63.62951494 167.75310552 65.71340292 173.6472168 67.73730469 C180.59678643 70.14914387 187.27229501 73.02564621 194 76 C194 84.58 194 93.16 194 102 C199.28 102 204.56 102 210 102 C210 72.96 210 43.92 210 14 C214.46671317 15.78668527 216.99002082 17.33068311 220.6875 20.25 C221.23639893 20.68038574 221.78529785 21.11077148 222.35083008 21.55419922 C223.56760779 22.50826546 224.78260731 23.46460261 225.99609375 24.42285156 C228.15619987 26.12293509 230.32684335 27.80882125 232.5 29.4921875 C245.17234879 39.30987834 245.17234879 39.30987834 251.3125 44.25 C255.11725506 47.3083361 258.95353661 50.32303277 262.8125 53.3125 C263.35237549 53.73370117 263.89225098 54.15490234 264.44848633 54.58886719 C266.86311651 56.4515283 269.24356008 58.14073093 271.88671875 59.66796875 C272.58410156 60.10753906 273.28148437 60.54710937 274 61 C274 61.66 274 62.32 274 63 C275.32 63.66 276.64 64.32 278 65 C278.33 79.85 278.66 94.7 279 110 C280.32 110.66 281.64 111.32 283 112 C284.30859375 113.55078125 284.30859375 113.55078125 285.4375 115.3125 C287.58718403 118.64563377 290.17222204 121.22183218 293 124 C299.07113718 130.41598503 304.84044417 136.93112129 310.29296875 143.8828125 C312.36165897 146.44855644 314.60688724 148.73624469 317 151 C320.65324304 154.54851263 323.99942805 158.27288932 327.25 162.1875 C331.38605923 167.12374808 335.61229827 171.95759863 339.94140625 176.7265625 C344.53937204 181.80439189 349.01299156 186.99106805 353.453125 192.20703125 C354.57525219 193.50767867 355.71275511 194.79511126 356.859375 196.07421875 C357.48328125 196.77160156 358.1071875 197.46898437 358.75 198.1875 C359.32234375 198.82042969 359.8946875 199.45335937 360.484375 200.10546875 C362 202 362 202 363.015625 204.17578125 C363.92253835 206.35457602 363.92253835 206.35457602 367 207 C368.56221756 208.73768402 370.05443479 210.53913218 371.5 212.375 C375.04211138 216.87504544 375.04211138 216.87504544 379 221 C378.67 221.99 378.34 222.98 378 224 C375.20629883 224.90380859 375.20629883 224.90380859 371.45703125 225.6484375 C370.78531387 225.78607513 370.1135965 225.92371277 369.42152405 226.06552124 C367.22075715 226.51403874 365.01681981 226.94431796 362.8125 227.375 C360.53759314 227.83457343 358.26365436 228.2987522 355.98968506 228.76293945 C354.47165916 229.07232006 352.95330562 229.38009726 351.43463135 229.6862793 C345.22410617 230.94014997 339.04588216 232.31353435 332.875 233.75 C325.70560844 235.40737248 318.52782495 236.91361833 311.3046875 238.3203125 C308.17541506 238.96392173 305.0936035 239.70403305 302 240.5 C296.41991995 241.93402856 290.80513358 243.07129734 285.15234375 244.1796875 C280.42792868 245.10730712 275.7131631 246.07946753 271 247.0625 C270.21101318 247.22484131 269.42202637 247.38718262 268.60913086 247.55444336 C265.12911671 248.28285283 261.7330429 249.07663705 258.3125 250.05859375 C255.19976052 250.94322844 252.19714368 251.52382966 249 252 C244.53503653 252.70819743 240.34311734 253.73654768 236 255 C233.3293098 255.50768711 230.65183418 255.9651248 227.97265625 256.42578125 C224.85396704 257.02820873 221.81869656 257.80693696 218.75 258.625 C209.79484057 260.83486492 209.79484057 260.83486492 206 260 C204.20602942 258.16162421 202.82839979 256.24216475 201.41015625 254.1015625 C199.13602602 250.7124155 196.15935313 248.07939775 193.1875 245.3125 C192 244 192 244 192 242 C191.40574219 241.7421875 190.81148437 241.484375 190.19921875 241.21875 C187.80697497 239.89303053 186.55218361 238.59621136 184.8125 236.5 C182.14032065 233.33782614 179.41803214 230.24374983 176.625 227.1875 C172.62846624 222.76812478 168.8556503 218.20050973 165.140625 213.54296875 C162.89142079 210.87101265 160.50132844 208.4358272 158 206 C154.12820017 202.22747709 150.20415824 198.37130867 147 194 C147 193.34 147 192.68 147 192 C146.41992188 191.76667969 145.83984375 191.53335938 145.2421875 191.29296875 C142.4574933 189.68716077 141.0837117 187.86187379 139.125 185.3125 C135.24567949 180.43123579 131.15370548 175.84685318 126.875 171.3125 C122.61724025 166.79953439 118.42197492 162.26320209 114.375 157.55859375 C113.11808884 156.13385639 111.78094747 154.78094747 110.4375 153.4375 C107.45724046 150.45724046 104.4956258 147.40468537 102 144 C102 143.34 102 142.68 102 142 C101.01 141.67 100.02 141.34 99 141 C97.56197818 139.4089357 96.19674665 137.7513985 94.875 136.0625 C89.65767034 129.528092 84.22770558 123.22770558 78.3125 117.3125 C75.37408612 114.37408612 72.46029525 111.35648527 70 108 C70 107.34 70 106.68 70 106 C69.40316406 105.73960937 68.80632812 105.47921875 68.19140625 105.2109375 C65.83893217 103.91099639 64.63949215 102.6882846 62.9375 100.625 C59.87507597 97.00277803 56.7179075 93.4839679 53.5 90 C46.74144487 82.64258555 46.74144487 82.64258555 43.8125 79.375 C43.26207031 78.76398438 42.71164062 78.15296875 42.14453125 77.5234375 C41 76 41 76 41 74 C40.01 73.67 39.02 73.34 38 73 C36.7890625 71.546875 36.7890625 71.546875 35.625 69.75 C32.91774243 65.77065755 29.70430689 62.58676849 26.1875 59.3125 C25 58 25 58 25 56 C24.41476562 55.75507812 23.82953125 55.51015625 23.2265625 55.2578125 C20.6399512 53.79660401 19.2439733 52.17210816 17.375 49.875 C16.29290197 48.54718539 15.17594761 47.24546176 14 46 C13.34 46 12.68 46 12 46 C10.61096733 47.62053812 9.28667172 49.29705213 8 51 C6.71332828 52.70294787 5.38903267 54.37946188 4 56 C3.34 56 2.68 56 2 56 C1.62875 56.82757812 1.62875 56.82757812 1.25 57.671875 C-0.24234474 60.45136707 -2.03672523 62.7814707 -4 65.25 C-4.70125 66.14203125 -5.4025 67.0340625 -6.125 67.953125 C-6.74375 68.62859375 -7.3625 69.3040625 -8 70 C-8.66 70 -9.32 70 -10 70 C-10.27312012 70.59079346 -10.54624023 71.18158691 -10.82763672 71.7902832 C-11.96551538 73.93500202 -13.16075981 75.53715051 -14.7578125 77.35546875 C-15.29752686 77.97389648 -15.83724121 78.59232422 -16.39331055 79.22949219 C-16.96476807 79.87563477 -17.53622559 80.52177734 -18.125 81.1875 C-18.70741455 81.85297852 -19.2898291 82.51845703 -19.88989258 83.20410156 C-23.7313786 87.58676937 -27.60100228 91.94457639 -31.51171875 96.265625 C-33.18004565 98.13911137 -33.18004565 98.13911137 -35 101 C-35.66 101 -36.32 101 -37 101 C-37.3403125 102.0828125 -37.3403125 102.0828125 -37.6875 103.1875 C-39.26994446 106.57845242 -41.34044297 108.3629181 -44 111 C-46.44902618 113.82141759 -48.80275483 116.72331173 -51.15820312 119.62304688 C-52.39677462 121.11787454 -53.69404891 122.56366409 -55 124 C-55.66 124 -56.32 124 -57 124 C-57.26167969 124.56847656 -57.52335938 125.13695312 -57.79296875 125.72265625 C-59.0966663 128.18238334 -60.59865763 130.24484579 -62.3125 132.4375 C-62.88613281 133.17871094 -63.45976562 133.91992188 -64.05078125 134.68359375 C-66 137 -66 137 -68.33203125 139.328125 C-71.51903535 142.51979529 -74.44035873 145.89018408 -77.375 149.3125 C-78.52586689 150.64858807 -79.67690703 151.98452692 -80.828125 153.3203125 C-81.37533203 153.95614258 -81.92253906 154.59197266 -82.48632812 155.24707031 C-84.84620648 157.97996169 -87.23628261 160.68596616 -89.6328125 163.38671875 C-91.08792584 165.05512133 -91.08792584 165.05512133 -92.5546875 167.20703125 C-93.03164063 167.79871094 -93.50859375 168.39039063 -94 169 C-94.66 169 -95.32 169 -96 169 C-96.226875 169.721875 -96.45375 170.44375 -96.6875 171.1875 C-98.26994446 174.57845242 -100.34044297 176.3629181 -103 179 C-105.44902618 181.82141759 -107.80275483 184.72331173 -110.15820312 187.62304688 C-111.39677462 189.11787454 -112.69404891 190.56366409 -114 192 C-114.66 192 -115.32 192 -116 192 C-116.26167969 192.56847656 -116.52335937 193.13695312 -116.79296875 193.72265625 C-118.0966663 196.18238334 -119.59865763 198.24484579 -121.3125 200.4375 C-121.88613281 201.17871094 -122.45976562 201.91992188 -123.05078125 202.68359375 C-125 205 -125 205 -127.33203125 207.328125 C-130.51902871 210.51978863 -133.4404344 213.89012835 -136.375 217.3125 C-137.53104779 218.65512205 -138.6872958 219.99757174 -139.84375 221.33984375 C-140.39160156 221.97647949 -140.93945312 222.61311523 -141.50390625 223.26904297 C-143.27669182 225.3201281 -145.0739019 227.34876464 -146.875 229.375 C-149.82962739 232.73186627 -152.54497452 236.24658796 -155.2265625 239.82421875 C-157 242 -157 242 -159.35546875 244.34375 C-162.88871987 247.89265806 -166.00311543 251.73889509 -169.15820312 255.62304688 C-170.39677462 257.11787454 -171.69404891 258.56366409 -173 260 C-173.66 260 -174.32 260 -175 260 C-175 260.66 -175 261.32 -175 262 C-173.87134521 261.87375244 -172.74269043 261.74750488 -171.57983398 261.61743164 C-160.3070276 260.3801031 -149.03381339 259.40742466 -137.72094727 258.62231445 C-135.06691654 258.43780704 -132.4133394 258.24759622 -129.75976562 258.05664062 C-124.50785623 257.68269267 -119.25466612 257.33289204 -114 257 C-112.78499313 256.92261093 -112.78499313 256.92261093 -111.54544067 256.84365845 C-97.13623492 255.95321113 -82.74644083 255.80088647 -68.3125 255.8125 C-66.56995438 255.81240936 -66.56995438 255.81240936 -64.79220581 255.81231689 C-47.02622892 255.82542146 -29.42636441 256.33360524 -11.71337891 257.72216797 C-7.83525866 258.01232582 -3.95670838 258.24885835 -0.07421875 258.47265625 C12.68572028 259.21924423 25.27028443 260.23644012 37.8984375 262.22265625 C42.42873048 262.9343081 46.96756482 263.4924917 51.52197266 264.02514648 C81.71949629 267.57269947 111.49537558 273.74256865 141 281 C141.73186523 281.17917969 142.46373047 281.35835937 143.21777344 281.54296875 C157.6185944 285.07512032 171.89360877 288.86475098 186.01904297 293.37207031 C189.1732524 294.37190106 192.33787777 295.33803007 195.5 296.3125 C214.01692589 302.07316546 232.67195297 307.95292684 250.52734375 315.546875 C255.89097444 317.79127389 261.29989923 319.92195085 266.70751953 322.05786133 C272.20277108 324.24058528 277.61116772 326.56775559 283 329 C284.73019842 329.77319069 286.46040503 330.54636309 288.19073486 331.31925964 C323.96563221 347.31479415 323.96563221 347.31479415 340.9140625 357.23828125 C343.896002 358.94062899 346.92119342 360.48174236 350 362 C351.2977095 362.69720079 352.5897682 363.40505687 353.875 364.125 C354.63941406 364.55296875 355.40382813 364.9809375 356.19140625 365.421875 C357.11824219 365.94265625 358.04507813 366.4634375 359 367 C360.23823734 367.69278682 361.47652224 368.38548863 362.71484375 369.078125 C366.81602023 371.37462518 370.90938457 373.68475059 375 376 C376.65708984 376.93585938 376.65708984 376.93585938 378.34765625 377.890625 C384.03850871 381.15093273 389.44123049 384.63203564 394.7734375 388.44921875 C397.14324791 390.09977091 399.59853801 391.53585205 402.125 392.93359375 C412.14376357 398.63176553 421.5507682 405.41826693 431 412 C431.76876465 412.53447754 432.5375293 413.06895508 433.32958984 413.61962891 C435.66012789 415.24231344 437.98697621 416.87013933 440.3125 418.5 C441.0358252 419.00426514 441.75915039 419.50853027 442.50439453 420.02807617 C443.17970215 420.50349854 443.85500977 420.9789209 444.55078125 421.46875 C445.14544189 421.88576172 445.74010254 422.30277344 446.3527832 422.73242188 C448 424 448 424 449.56323242 425.56445312 C451.47811202 427.47770581 453.66908819 428.63556382 456 430 C457.3411499 430.98949215 458.67583092 431.98789624 460 433 C460.02505615 431.6809668 460.0501123 430.36193359 460.07592773 429.00292969 C460.17163697 424.00791196 460.27142601 419.01298198 460.37231445 414.01806641 C460.41505684 411.87518395 460.4567601 409.73228045 460.49731445 407.58935547 C460.76086027 393.709276 461.21312043 379.86066636 462 366 C461.36570068 365.91838623 460.73140137 365.83677246 460.07788086 365.75268555 C449.24231324 364.24511816 437.57788758 357.89363289 430 350 C429.08476563 349.27554687 428.16953125 348.55109375 427.2265625 347.8046875 C423.92405819 345.06734686 421.42094954 341.99591776 418.875 338.5625 C418.45863281 338.01529297 418.04226563 337.46808594 417.61328125 336.90429688 C396.68209733 309.1819608 387.69450985 273.32784727 392.42773438 238.88769531 C393.52739963 232.79456871 395.12484751 226.89615224 397 221 C397.30429932 220.0102417 397.30429932 220.0102417 397.61474609 219.00048828 C400.54253314 209.62521031 404.69560572 200.80211965 409 192 C409.31340332 191.35272949 409.62680664 190.70545898 409.94970703 190.03857422 C418.49432284 172.42372057 427.99541922 155.1179933 439.45703125 139.21875 C441.08957936 136.87118715 442.5524626 134.46545808 444 132 C444.84769185 130.55867232 445.70140423 129.12086004 446.5625 127.6875 C447.18318359 126.64142578 447.18318359 126.64142578 447.81640625 125.57421875 C448.20699219 125.05472656 448.59757813 124.53523437 449 124 C449.66 124 450.32 124 451 124 C451.0721875 123.46632813 451.144375 122.93265625 451.21875 122.3828125 C452.30890391 119.05784307 454.36553139 116.59099566 456.5 113.875 C459.51409067 110.11033356 459.51409067 110.11033356 462 106 C462.66 106 463.32 106 464 106 C464.23847656 105.29488281 464.47695313 104.58976563 464.72265625 103.86328125 C466.21784569 100.51167924 468.12024117 98.02985197 470.4375 95.1875 C471.21996094 94.21167969 472.00242187 93.23585938 472.80859375 92.23046875 C473.89333984 91.12638672 473.89333984 91.12638672 475 90 C475.99 90 476.98 90 478 90 C479.98929675 92.33144368 481.78108724 94.6414761 483.5625 97.125 C484.09045166 97.84478027 484.61840332 98.56456055 485.16235352 99.30615234 C489.03239842 104.59980224 492.85324473 109.93290019 496.61352539 115.30517578 C498.51289309 118.00335063 500.4728104 120.59739012 502.61328125 123.10546875 C504.65453906 125.58103673 506.23814318 127.87485728 507.75 130.6875 C508.36101562 131.80705078 508.36101562 131.80705078 508.984375 132.94921875 C510 135 510 135 511 138 C511.66 138 512.32 138 513 138 C514.5234375 140.10546875 514.5234375 140.10546875 516.375 143.1875 C516.71515137 143.75194824 517.05530273 144.31639648 517.40576172 144.89794922 C532.63441621 170.36390423 547.34282959 195.91075053 555.921875 224.44140625 C556.5744531 226.59538688 557.27930659 228.73570975 558.078125 230.83984375 C566.50355838 259.72194378 558.22365815 295.80516405 545 322 C543.30276077 324.80061345 541.54983879 327.40852108 539.54296875 329.9921875 C537.88672944 332.05312163 537.88672944 332.05312163 536.42578125 334.7578125 C535.95527344 335.49773437 535.48476563 336.23765625 535 337 C534.34 337 533.68 337 533 337 C532.91363281 337.5878125 532.82726562 338.175625 532.73828125 338.78125 C531.79637733 341.61194539 530.48426739 342.62508785 528.1875 344.5 C525.87737444 346.4216608 523.72573394 348.28148358 521.625 350.4375 C520 352 520 352 518 352 C517.67 352.99 517.34 353.98 517 355 C514.68691929 356.47643449 512.43232372 357.74845888 510 359 C508.84371094 359.62455078 508.84371094 359.62455078 507.6640625 360.26171875 C503.44156784 362.47952746 499.3971185 364.2260571 494.81762695 365.57788086 C493.46493462 365.97867104 493.46493462 365.97867104 492.08491516 366.38755798 C491.39689316 366.58966385 490.70887115 366.79176971 490 367 C489.76796745 378.5959449 489.59045122 390.19133487 489.48187828 401.78913116 C489.42975846 407.17503537 489.35910926 412.55934787 489.24560547 417.94433594 C489.13668569 423.1445826 489.07710465 428.34330191 489.05122757 433.54460144 C489.03279588 435.52548772 488.99679934 437.50629333 488.94269943 439.48652649 C488.27193051 450.30341 488.27193051 450.30341 492.18731689 459.93725586 C494.70380171 461.9556584 497.17052004 463.46924622 500 465 C501.72567749 466.59851074 501.72567749 466.59851074 503 468 C504.07612293 468.94576783 505.16033939 469.88236178 506.25 470.8125 C511.13774663 475.05520943 515.83854646 479.49417662 520.54394531 483.93676758 C523.44569096 486.66539341 526.35066455 489.31464493 529.4609375 491.8046875 C530.29882812 492.52914063 531.13671875 493.25359375 532 494 C532 494.66 532 495.32 532 496 C532.8353125 496.3403125 532.8353125 496.3403125 533.6875 496.6875 C536.66159588 498.37550036 538.72008865 500.46676517 541 503 C541 503.66 541 504.32 541 505 C541.5887793 505.26425781 542.17755859 505.52851562 542.78417969 505.80078125 C545.08072584 507.04368944 546.60833166 508.35006481 548.453125 510.1875 C549.071875 510.80367187 549.690625 511.41984375 550.328125 512.0546875 C550.96234375 512.69664062 551.5965625 513.33859375 552.25 514 C552.8996875 514.64195312 553.549375 515.28390625 554.21875 515.9453125 C554.83234375 516.56148437 555.4459375 517.17765625 556.078125 517.8125 C556.63918945 518.37582031 557.20025391 518.93914063 557.77832031 519.51953125 C559 521 559 521 559 523 C559.556875 523.226875 560.11375 523.45375 560.6875 523.6875 C563.66159588 525.37550036 565.72008865 527.46676517 568 530 C568 530.66 568 531.32 568 532 C568.99 532.33 569.98 532.66 571 533 C572.859375 534.671875 572.859375 534.671875 574.75 536.75 C575.38421875 537.42546875 576.0184375 538.1009375 576.671875 538.796875 C578 541 578 541 577.92578125 543.4453125 C576.83291954 546.46105748 575.38314654 548.57395659 573.4375 551.125 C572.72207031 552.07246094 572.00664063 553.01992188 571.26953125 553.99609375 C570.52058594 554.98738281 569.77164063 555.97867188 569 557 C566.88248344 559.98965252 564.76921332 562.98209656 562.6640625 565.98046875 C562.11492188 566.64691406 561.56578125 567.31335937 561 568 C560.34 568 559.68 568 559 568 C558.67 569.32 558.34 570.64 558 572 C557.34 572 556.68 572 556 572 C555.74605469 572.73605469 555.49210938 573.47210937 555.23046875 574.23046875 C553.92593939 577.16669515 552.49293817 578.96927863 550.3125 581.3125 C549.24515625 582.47652344 549.24515625 582.47652344 548.15625 583.6640625 C547.08890625 584.82035156 547.08890625 584.82035156 546 586 C544.76561098 587.39121714 543.53610777 588.7867911 542.3125 590.1875 C541.46558594 591.15236328 541.46558594 591.15236328 540.6015625 592.13671875 C539.08996405 593.8953345 537.63702434 595.69021376 536.1875 597.5 C535.465625 598.325 534.74375 599.15 534 600 C533.34 600 532.68 600 532 600 C531.773125 600.556875 531.54625 601.11375 531.3125 601.6875 C529.62622733 604.65855185 527.469646 606.64522125 525 609 C522.03169943 611.89018739 519.25027196 614.85146713 516.5625 618 C513.60186134 621.41313802 510.62658493 624.3011461 507 627 C506.34 627 505.68 627 505 627 C504.73832031 627.59683594 504.47664062 628.19367187 504.20703125 628.80859375 C502.92132852 631.14283074 501.72102904 632.3599093 499.6875 634.0625 C498.98238281 634.65933594 498.27726563 635.25617187 497.55078125 635.87109375 C496.70902344 636.57363281 495.86726562 637.27617188 495 638 C493.93019737 638.90661811 492.86123909 639.81423314 491.79296875 640.72265625 C489.05913714 643.04533834 486.32503109 645.36754219 483.57324219 647.66894531 C482.49444038 648.58167458 481.42785959 649.50898874 480.37207031 650.44824219 C476.32041696 654 476.32041696 654 473 654 C472.67 654.99 472.34 655.98 472 657 C469.78515625 658.82421875 469.78515625 658.82421875 467.0625 660.6875 C466.16660156 661.31011719 465.27070312 661.93273438 464.34765625 662.57421875 C462 664 462 664 460 664 C459.67 664.99 459.34 665.98 459 667 C457.35 667.33 455.7 667.66 454 668 C451.44736323 663.60946475 449.01424011 659.16931183 446.625 654.6875 C444.03566709 649.85665502 441.32196708 645.14082544 438.46484375 640.46484375 C436.89730521 637.8271989 435.44519153 635.14394959 434 632.4375 C431.28316061 627.40710207 428.23990984 622.70498536 425 618 C423.93453845 616.41865804 422.8720076 614.8353373 421.8125 613.25 C421.34457031 612.55390625 420.87664063 611.8578125 420.39453125 611.140625 C419.44042731 609.67606209 418.52510468 608.18569823 417.64453125 606.67578125 C415.16551501 602.64222751 412.32073036 598.8808401 409.49609375 595.08398438 C406.08405322 590.4012878 406.08405322 590.4012878 405.55126953 587.85766602 C405.36935059 587.24463623 405.18743164 586.63160645 405 586 C404.01 585.67 403.02 585.34 402 585 C400.61558 583.03501678 399.28796166 581.02951535 398 579 C397.2575 578.0925 396.515 577.185 395.75 576.25 C394 574 394 574 394 572 C393.34 572 392.68 572 392 572 C391.8453125 571.0409375 391.8453125 571.0409375 391.6875 570.0625 C391.460625 569.381875 391.23375 568.70125 391 568 C390.01 567.67 389.02 567.34 388 567 C387.66666667 565.66666667 387.33333333 564.33333333 387 563 C386.01 562.67 385.02 562.34 384 562 C382.34375 560.13671875 382.34375 560.13671875 380.5 557.6875 C376.87189667 553.01706864 373.02579007 548.66293293 369.00683594 544.33398438 C366.36975201 541.49291695 363.77872135 538.62536279 361.25 535.6875 C358.43105824 532.4180736 355.42188072 529.40968947 352.28515625 526.4453125 C351 525 351 525 351 523 C350.360625 522.731875 349.72125 522.46375 349.0625 522.1875 C347 521 347 521 346 518 C345.4225 517.71125 344.845 517.4225 344.25 517.125 C341.8899526 515.9449763 340.42572482 514.5138797 338.6171875 512.62109375 C335.70646077 509.70333628 332.58154034 507.01611705 329.5 504.28125 C327.82726166 502.75487626 326.1936904 501.18449795 324.6015625 499.57421875 C321.65006873 496.65374669 318.55384933 493.97968523 315.375 491.3125 C314.80265625 490.82716797 314.2303125 490.34183594 313.640625 489.84179688 C311.15905385 487.74977468 308.70356007 485.80237338 306 484 C306 483.34 306 482.68 306 482 C305.195625 481.71125 304.39125 481.4225 303.5625 481.125 C301 480 301 480 300 478 C299.01 477.67 298.02 477.34 297 477 C295.31769827 475.34911647 293.65345407 473.67977534 292 472 C289.95654342 470.33416777 287.91329069 468.71346397 285.8125 467.125 C285.24370117 466.69155273 284.67490234 466.25810547 284.08886719 465.81152344 C278.32505232 461.44421335 272.45753065 457.23449369 266.3828125 453.30859375 C265.55523438 452.77363281 264.72765625 452.23867188 263.875 451.6875 C263.12992188 451.21699219 262.38484375 450.74648438 261.6171875 450.26171875 C261.08351563 449.84535156 260.54984375 449.42898438 260 449 C260 448.34 260 447.68 260 447 C259.33355469 446.77441406 258.66710937 446.54882812 257.98046875 446.31640625 C254.1094351 444.60665744 250.79426159 442.32509015 247.3125 439.9375 C242.78254162 436.75797383 242.78254162 436.75797383 238 434 C238 433.34 238 432.68 238 432 C236.35 431.67 234.7 431.34 233 431 C233 430.34 233 429.68 233 429 C232.12730469 428.74734375 231.25460937 428.4946875 230.35546875 428.234375 C226.87631651 426.9545006 224.33663094 425.37885616 221.3125 423.25 C216.54467343 419.98501123 211.72204519 417.12009915 206.62109375 414.4140625 C204.17561871 413.09474512 201.80712835 411.70013154 199.4375 410.25 C187.24218553 402.86709964 174.66975339 396.19209551 161.87304688 389.92041016 C158.90730082 388.46305059 155.95426032 386.98047208 153 385.5 C151.87464844 384.93796875 150.74929688 384.3759375 149.58984375 383.796875 C146.99591378 382.5002726 144.40555175 381.19675379 141.81640625 379.890625 C141.10806641 379.53419922 140.39972656 379.17777344 139.66992188 378.81054688 C138.30970221 378.12602484 136.95026749 377.43993973 135.59179688 376.75195312 C129.60205077 373.74169018 123.44728589 371.17581657 117.25 368.625 C113.46099468 367.05246947 109.71677875 365.42316555 106 363.6875 C99.05017519 360.48997538 91.92155144 357.7370178 84.8125 354.91796875 C81.04513072 353.42257469 77.29764139 351.88702104 73.5625 350.3125 C63.82897395 346.2271609 53.93452115 342.56346954 44 339 C42.88625 338.5978125 41.7725 338.195625 40.625 337.78125 C34.20944887 335.47390266 27.78124117 333.22396924 21.3046875 331.09375 C18.82567794 330.27327402 16.35319666 329.43944673 13.8828125 328.59375 C5.40833606 325.70745453 -3.08084117 323.0877909 -11.7253418 320.75854492 C-16.76322071 319.38690302 -21.62797049 317.75114928 -26.51171875 315.8984375 C-30.92641905 314.30443268 -35.45950534 313.17539743 -40 312 C-42.27125542 311.39742203 -44.54205345 310.79311856 -46.8125 310.1875 C-48.07835937 309.85105469 -49.34421875 309.51460937 -50.6484375 309.16796875 C-54.80016275 308.05857331 -58.94378558 306.92034219 -63.08764648 305.78198242 C-76.52142902 302.09583444 -89.97157534 298.61831681 -103.58251953 295.64233398 C-109.30597353 294.38855006 -115.01230283 293.06884238 -120.71728516 291.73364258 C-130.69655675 289.40219075 -140.64991338 287.20812459 -150.74023438 285.41259766 C-154.48230971 284.72935356 -158.21421765 283.99408138 -161.94799805 283.26708984 C-190.60741146 277.57315848 -190.60741146 277.57315848 -219.5078125 273.359375 C-222 273 -222 273 -224 272 C-224 271.01 -224 270.02 -224 269 C-223.34 269 -222.68 269 -222 269 C-221.72220703 268.41049561 -221.44441406 267.82099121 -221.15820312 267.21362305 C-219.35192041 263.76135378 -216.91285665 260.85818598 -214.5 257.8125 C-214.00113281 257.17119141 -213.50226563 256.52988281 -212.98828125 255.86914062 C-209.25178299 251.1258915 -209.25178299 251.1258915 -207 250 C-206.731875 249.4225 -206.46375 248.845 -206.1875 248.25 C-204.61718069 245.27465815 -202.38202966 243.37162778 -200 241 C-198.60127224 239.353196 -197.22662592 237.68567795 -195.875 236 C-192.44889667 231.76440137 -188.96966596 227.58430068 -185.4375 223.4375 C-180.33434326 217.43141643 -175.37751716 211.32161309 -170.52392578 205.11132812 C-168.89589167 203.0286267 -167.26053395 200.95181448 -165.625 198.875 C-165.10043213 198.19840332 -164.57586426 197.52180664 -164.03540039 196.82470703 C-162.73609883 195.17922185 -161.373139 193.58439115 -160 192 C-159.34 192 -158.68 192 -158 192 C-157.72220703 191.4112207 -157.44441406 190.82244141 -157.15820312 190.21582031 C-155.34581635 186.74844629 -152.91246873 183.81701451 -150.5 180.75 C-150.00113281 180.1003125 -149.50226563 179.450625 -148.98828125 178.78125 C-147.70815807 177.14763436 -146.35894401 175.56865759 -145 174 C-144.34 174 -143.68 174 -143 174 C-142.773125 173.278125 -142.54625 172.55625 -142.3125 171.8125 C-140.73749376 168.43748662 -138.6491581 166.60642974 -136 164 C-134.66311572 162.43720088 -133.35128927 160.8526924 -132.0625 159.25 C-131.28390625 158.28835938 -130.5053125 157.32671875 -129.703125 156.3359375 C-129.27451172 155.80581055 -128.84589844 155.27568359 -128.40429688 154.72949219 C-125.72508409 151.42984974 -123.0166116 148.15423981 -120.3125 144.875 C-119.11457108 143.42058301 -117.91665461 141.96615576 -116.71875 140.51171875 C-114.17901466 137.42939133 -111.63699447 134.34896374 -109.09375 131.26953125 C-108.46041748 130.50205566 -107.82708496 129.73458008 -107.17456055 128.94384766 C-105.96062036 127.47285838 -104.7459733 126.0024521 -103.53051758 124.53271484 C-102.7052356 123.53232178 -102.7052356 123.53232178 -101.86328125 122.51171875 C-101.35619629 121.89731934 -100.84911133 121.28291992 -100.32666016 120.64990234 C-99.24842974 119.30895992 -98.22975338 117.92029448 -97.23046875 116.51953125 C-96.82441406 116.01808594 -96.41835938 115.51664063 -96 115 C-95.34 115 -94.68 115 -94 115 C-93.34 113.35 -92.68 111.7 -92 110 C-91.34 110 -90.68 110 -90 110 C-89.72220703 109.4112207 -89.44441406 108.82244141 -89.15820312 108.21582031 C-87.34581635 104.74844629 -84.91246873 101.81701451 -82.5 98.75 C-82.00113281 98.1003125 -81.50226563 97.450625 -80.98828125 96.78125 C-79.70815807 95.14763436 -78.35894401 93.56865759 -77 92 C-76.34 92 -75.68 92 -75 92 C-74.938125 91.443125 -74.87625 90.88625 -74.8125 90.3125 C-73.66513881 87.04693354 -71.4606869 85.42250981 -69 83 C-67.26625958 81.03671451 -65.55910702 79.06702218 -63.875 77.0625 C-63.40344482 76.50401367 -62.93188965 75.94552734 -62.44604492 75.37011719 C-58.49152423 70.65483453 -54.69841994 65.82240693 -50.92431641 60.96240234 C-47.722248 56.8599321 -44.36258252 52.95271379 -40.8515625 49.109375 C-38.20254779 46.09151014 -35.82258643 42.886542 -33.4453125 39.65234375 C-32.96835937 39.10707031 -32.49140625 38.56179688 -32 38 C-31.34 38 -30.68 38 -30 38 C-29.34 36.35 -28.68 34.7 -28 33 C-27.34 33 -26.68 33 -26 33 C-25.938125 32.443125 -25.87625 31.88625 -25.8125 31.3125 C-24.66945071 28.05920586 -22.43479491 26.43479491 -20 24 C-18.26304429 21.88531418 -16.63113075 19.69692923 -15 17.5 C-11.91017232 13.33838834 -8.72730912 9.62873565 -5 6 C-4.04399957 4.91181185 -3.10188312 3.81088497 -2.1875 2.6875 C-1.465625 1.800625 -0.74375 0.91375 0 0 Z " fill="#8CC63B" transform="translate(444,465)"/>
<path d="M0 0 C2.39266347 0.73950181 4.78871095 1.46811659 7.1875 2.1875 C18.16591024 5.61054753 29.05223255 9.32657966 39.95458984 12.98242188 C42.50504131 13.83461698 45.05766276 14.67909248 47.61328125 15.515625 C54.27921504 17.70299268 60.83285626 20.05872527 67.36328125 22.62109375 C71.83716908 24.31742286 76.35240571 25.87675492 80.875 27.4375 C88.19639671 29.97130171 95.40480636 32.68463135 102.578125 35.609375 C105.76732715 36.90544345 108.97037198 38.15020507 112.1875 39.375 C129.68250353 46.07567253 146.96828081 53.19268131 164 61 C168.25751275 62.94903023 172.53392372 64.822152 176.8828125 66.55859375 C184.87994095 69.76326189 192.49017587 73.12321513 199.97265625 77.421875 C202.92610679 78.96148019 205.83987574 80.08815841 208.96264648 81.21826172 C212.25664278 82.48217737 215.36400122 84.07790753 218.5 85.6875 C219.91527572 86.40512319 221.33064276 87.12256633 222.74609375 87.83984375 C223.45749512 88.20190918 224.16889648 88.56397461 224.90185547 88.93701172 C226.8579955 89.9280559 228.81960305 90.9066916 230.78515625 91.87890625 C249.66698766 101.22026276 268.20740239 111.10939354 286.49072266 121.57348633 C288.93776855 122.96462168 291.39585651 124.3336005 293.859375 125.6953125 C296.90523391 127.38135279 299.9075552 129.11584794 302.875 130.9375 C306.38674479 133.06632513 309.94038 135.0651716 313.5625 137 C317.76799445 139.26766858 321.70568843 141.7512857 325.64453125 144.44921875 C328.2479263 146.16322843 330.91724391 147.70632597 333.625 149.25 C339.73740338 152.7694985 345.55887367 156.64849809 351.40234375 160.58984375 C354.44221805 162.63749796 357.52001156 164.61453782 360.625 166.5625 C369.64819796 172.26558951 378.32379846 178.46719479 386.9296875 184.77734375 C389.98868621 186.99180974 393.07470527 189.16297809 396.16796875 191.32910156 C403.34897677 196.35898462 410.38192063 201.51112651 417.265625 206.94140625 C419.76610877 208.82391332 422.30761761 210.41266499 425 212 C426.01868662 212.98095748 427.02351983 213.97702078 428 215 C428.66 215.33 429.32 215.66 430 216 C430 216.66 430 217.32 430 218 C430.56589844 218.25652344 431.13179687 218.51304687 431.71484375 218.77734375 C434.26255465 220.14047796 436.32316138 221.73635071 438.5625 223.5625 C439.88121094 224.63371094 439.88121094 224.63371094 441.2265625 225.7265625 C442.14179687 226.47679687 443.05703125 227.22703125 444 228 C444.89460938 228.72960937 445.78921875 229.45921875 446.7109375 230.2109375 C448.53403878 231.69971648 450.35434114 233.19192928 452.171875 234.6875 C454.15159531 236.30627682 456.13823345 237.90993815 458.140625 239.5 C459.14609375 240.304375 460.1515625 241.10875 461.1875 241.9375 C462.57001953 243.03384766 462.57001953 243.03384766 463.98046875 244.15234375 C464.64691406 244.76207031 465.31335938 245.37179687 466 246 C466 246.66 466 247.32 466 248 C466.8353125 248.37125 466.8353125 248.37125 467.6875 248.75 C472.52377111 251.3642006 476.14581362 255.14581362 480 259 C485.28884805 263.85878601 490.66550182 268.61722065 496.11328125 273.296875 C498.49620615 275.44792108 500.73390488 277.72611267 503 280 C504.68443577 281.67364024 506.36934978 283.34679926 508.0546875 285.01953125 C509.50088274 286.45834458 510.94659145 287.89764481 512.39208984 289.3371582 C513.376212 290.31625767 514.36123062 291.29445695 515.34716797 292.27172852 C520.57954632 297.45952763 525.74301123 302.6602798 530.50585938 308.28930664 C532.135297 310.15490623 533.85735433 311.89050859 535.625 313.625 C538.64657781 316.6056535 541.41410915 319.63050586 544 323 C544 323.66 544 324.32 544 325 C544.86625 325.3403125 544.86625 325.3403125 545.75 325.6875 C548.59739809 327.34848222 550.12067193 329.31524561 552 332 C552 332.66 552 333.32 552 334 C552.99 334.33 553.98 334.66 555 335 C556.62909091 336.75289056 558.18404347 338.57573177 559.6875 340.4375 C560.49574219 341.42621094 561.30398438 342.41492187 562.13671875 343.43359375 C564 346 564 346 564 348 C564.66 348 565.32 348 566 348 C566.1546875 348.9590625 566.1546875 348.9590625 566.3125 349.9375 C566.539375 350.618125 566.76625 351.29875 567 352 C567.99 352.33 568.98 352.66 570 353 C570.33333333 354.33333333 570.66666667 355.66666667 571 357 C571.99 357.33 572.98 357.66 574 358 C575.9375 360.36328125 575.9375 360.36328125 578 363.3125 C578.680625 364.27800781 579.36125 365.24351562 580.0625 366.23828125 C581.0215625 367.60533203 581.0215625 367.60533203 582 369 C582.5775 369.73605469 583.155 370.47210937 583.75 371.23046875 C585 373 585 373 585 375 C585.66 375 586.32 375 587 375 C587.93460051 376.31536368 588.85553706 377.6420703 589.71484375 379.0078125 C591.88390859 382.37019264 594.26921851 385.5833702 596.609375 388.828125 C598 391 598 391 598 393 C598.66 393 599.32 393 600 393 C601.62109375 395.01171875 601.62109375 395.01171875 603.4375 397.6875 C604.03433594 398.55761719 604.63117187 399.42773438 605.24609375 400.32421875 C606.37219298 402.04220977 607.46777291 403.78082094 608.5234375 405.54296875 C610.46452822 408.77298479 612.62983981 411.82989326 614.79296875 414.9140625 C616 417 616 417 616 420 C616.66 420 617.32 420 618 420 C619.40234375 422.01171875 619.40234375 422.01171875 620.9375 424.6875 C621.69353516 425.99267578 621.69353516 425.99267578 622.46484375 427.32421875 C622.97144531 428.20722656 623.47804688 429.09023437 624 430 C624.55816406 430.87269531 625.11632812 431.74539063 625.69140625 432.64453125 C627 435 627 435 627 438 C615.57011128 442.56447275 604.1150383 446.25489076 592.17358398 449.21044922 C589.1699666 449.95771429 586.17235494 450.72503717 583.17578125 451.5 C572.78128615 454.1690223 562.44904026 456.64798108 551.8515625 458.359375 C549.04111924 458.82683209 546.29078149 459.35671008 543.5078125 459.94921875 C536.47691835 461.3692647 529.36818116 462.21771495 522.25 463.0625 C521.51133698 463.15059937 520.77267395 463.23869873 520.0116272 463.32946777 C504.684263 465.1289395 489.43458892 465.81939725 474 466 C473.06510742 466.01514648 472.13021484 466.03029297 471.16699219 466.04589844 C465.10837456 466.13875949 459.05829638 466.0961472 453 466 C451.89736816 465.98743164 450.79473633 465.97486328 449.65869141 465.96191406 C423.57461737 465.61596207 397.16203467 463.87122699 371.70703125 457.859375 C368.5484951 457.12715376 365.45668772 456.57856262 362.25 456.125 C331.53868474 451.19759672 298.57466465 440.84480712 270.62109375 427.2578125 C268.15303586 426.07343897 265.67809956 425.04732608 263.125 424.0625 C249.54589135 418.7412558 236.75793161 411.92941768 224.31640625 404.35546875 C222.32274573 403.18885795 220.33878595 402.16758853 218.25 401.1875 C212.47666086 398.38198178 207.19418336 394.70257374 201.83349609 391.19238281 C200.09148444 390.05949534 198.3398224 388.94414331 196.58203125 387.8359375 C187.79603082 382.28488624 179.30970975 376.35566091 170.86328125 370.30224609 C169.10406141 369.07272845 167.31252759 367.91827898 165.5 366.76953125 C164.675 366.18558594 163.85 365.60164063 163 365 C163 364.34 163 363.68 163 363 C161.90365234 362.62681641 161.90365234 362.62681641 160.78515625 362.24609375 C157.75195609 360.88902383 155.85841278 359.32342203 153.4375 357.0625 C151.24983161 355.03407263 149.15031815 353.10751745 146.72265625 351.37109375 C145.86994141 350.69240234 145.86994141 350.69240234 145 350 C145 349.34 145 348.68 145 348 C143.9171875 347.6596875 143.9171875 347.6596875 142.8125 347.3125 C139.41431697 345.72668125 137.54769001 343.73876676 135 341 C132.02561535 337.94063294 128.9512714 335.0666855 125.75 332.25 C120.77907031 327.80232606 116.03477677 323.14751643 111.3125 318.4375 C110.24370605 317.37547363 110.24370605 317.37547363 109.15332031 316.29199219 C105.12883467 312.25629108 101.29861246 308.11577661 97.58129883 303.79614258 C95.49266536 301.42373615 93.23817108 299.23068556 91 297 C87.9146951 293.40229463 84.96243265 289.69925576 82 286 C81.29488281 285.12730469 80.58976562 284.25460937 79.86328125 283.35546875 C79.22777344 282.55753906 78.59226562 281.75960938 77.9375 280.9375 C77.36902344 280.22464844 76.80054688 279.51179688 76.21484375 278.77734375 C75 277 75 277 75 275 C74.01 274.67 73.02 274.34 72 274 C71.505 272.515 71.505 272.515 71 271 C70.01743794 269.98286097 69.01414879 268.98564812 68 268 C52 247.31707317 52 247.31707317 52 243 C51.34 243 50.68 243 50 243 C48.51953125 240.76171875 48.51953125 240.76171875 46.8125 237.6875 C44.46667422 233.53606974 42.05548962 229.48516197 39.4375 225.5 C36.5263843 220.96587289 34.07913059 216.33571003 31.7265625 211.4921875 C29.58461346 207.15982904 27.32566484 202.89493904 25.0625 198.625 C13.28520428 176.32045099 13.28520428 176.32045099 10.73828125 168.9765625 C9.80669668 166.48247894 8.68738124 164.10038726 7.5625 161.6875 C3.81993023 153.55245314 0.99822768 145.12159628 -1.80078125 136.625 C-2.74623724 133.7670744 -3.70328709 130.91394584 -4.66796875 128.0625 C-8.74366724 115.98916303 -12.78581082 103.9756212 -15.41796875 91.48828125 C-15.67658691 90.26584717 -15.93520508 89.04341309 -16.20166016 87.78393555 C-16.4651123 86.53523682 -16.72856445 85.28653809 -17 84 C-17.51165858 81.61717458 -18.02337677 79.23436196 -18.53515625 76.8515625 C-21.05514186 64.99104596 -23.5416632 53.24733084 -24.75830078 41.17382812 C-25.05330552 38.52057339 -25.41447158 35.87919598 -25.77734375 33.234375 C-27.29052623 22.08162739 -28.48739252 11.26418265 -28 0 C-17.19959069 -4.26763894 -11.03119943 -4.09008485 0 0 Z " fill="#8CC63B" transform="translate(152,758)"/>
<path d="M0 0 C0.70962891 0.31372559 1.41925781 0.62745117 2.15039062 0.95068359 C9.71634606 4.32304167 17.15061397 7.68016605 23.91015625 12.51953125 C26.31014419 14.21970962 28.80011376 15.72118625 31.3125 17.25 C41.92258523 23.96524382 50.97571937 32.37086325 59 42 C59.77085937 42.763125 60.54171875 43.52625 61.3359375 44.3125 C64.0953872 47.09622639 66.61454301 49.99052251 69.125 53 C69.97320313 54.010625 70.82140625 55.02125 71.6953125 56.0625 C77 62.82372881 77 62.82372881 77 66 C77.66 66 78.32 66 79 66 C85.10591391 73.91435338 95.27729996 90.92885111 94.875 101.1875 C94 104 94 104 92.0625 105.125 C91.381875 105.41375 90.70125 105.7025 90 106 C89.31731862 107.32520503 88.6492959 108.65812182 88 110 C86.515 110.495 86.515 110.495 85 111 C84.71382812 111.59039062 84.42765625 112.18078125 84.1328125 112.7890625 C82.59525743 115.78994584 80.50763702 117.28502354 77.875 119.375 C76.88113281 120.16519531 75.88726563 120.95539063 74.86328125 121.76953125 C73.91839844 122.50558594 72.97351563 123.24164063 72 124 C71.31292969 124.54011719 70.62585938 125.08023438 69.91796875 125.63671875 C61.34857539 132.22162102 52.46209691 138.03636487 42.69140625 142.67578125 C39.97879897 143.96315119 39.97879897 143.96315119 37.42578125 145.55078125 C33.48775457 147.90345098 29.29129183 149.4070634 25 151 C23.95199219 151.39316406 22.90398438 151.78632813 21.82421875 152.19140625 C4.71326984 158.26303328 -12.841183 161.80319201 -31 162 C-32.258125 162.02707031 -33.51625 162.05414063 -34.8125 162.08203125 C-38.54587279 162.12553453 -42.26726233 162.07672637 -46 162 C-46.65307129 161.99806641 -47.30614258 161.99613281 -47.97900391 161.99414062 C-82.180289 161.83045895 -119.03353661 148.01376003 -146 127 C-146 126.34 -146 125.68 -146 125 C-147.32 124.67 -148.64 124.34 -150 124 C-150 123.34 -150 122.68 -150 122 C-152.475 121.01 -152.475 121.01 -155 120 C-155 119.34 -155 118.68 -155 118 C-155.59530518 117.72921631 -156.19061035 117.45843262 -156.80395508 117.17944336 C-158.97403559 116.01394487 -160.39984624 114.85807034 -162.13671875 113.12890625 C-162.99692627 112.27486206 -162.99692627 112.27486206 -163.87451172 111.40356445 C-164.77194092 110.49223755 -164.77194092 110.49223755 -165.6875 109.5625 C-166.30383301 108.94012451 -166.92016602 108.31774902 -167.55517578 107.67651367 C-182 92.92062237 -182 92.92062237 -182 88 C-182.99 87.67 -183.98 87.34 -185 87 C-186.31640625 85.22265625 -186.31640625 85.22265625 -187.5625 83.0625 C-188.94197027 80.69462424 -190.04971701 78.95028299 -192 77 C-194.40028291 76.5508698 -194.40028291 76.5508698 -197.21484375 76.40234375 C-198.28259033 76.3235498 -199.35033691 76.24475586 -200.45043945 76.16357422 C-201.60116943 76.08896973 -202.75189941 76.01436523 -203.9375 75.9375 C-205.12754639 75.85516113 -206.31759277 75.77282227 -207.54370117 75.68798828 C-209.94321484 75.52455792 -212.34304106 75.36564924 -214.74316406 75.21142578 C-217.37981918 75.04026061 -220.01386356 74.85211339 -222.6484375 74.65234375 C-265.46737945 71.63142156 -311.17695035 73.36768917 -353.01367188 83.30859375 C-356.7867915 84.18216102 -360.55531329 84.85957349 -364.375 85.5 C-365.82051639 85.74881839 -367.26582541 85.99884415 -368.7109375 86.25 C-369.4234668 86.37375 -370.13599609 86.4975 -370.87011719 86.625 C-382.99648357 88.75325813 -382.99648357 88.75325813 -394.77734375 92.25390625 C-397.40642669 93.13642794 -400.05417659 93.7872688 -402.75 94.4375 C-413.26920103 97.01792979 -423.45967215 100.46132326 -433.6875 104 C-434.64954346 104.33217529 -435.61158691 104.66435059 -436.6027832 105.0065918 C-442.04032079 106.90429661 -447.40691741 108.92277863 -452.74291992 111.08935547 C-456.80309185 112.72747784 -460.91567347 114.22933058 -465.01953125 115.75390625 C-467.87948978 116.9496163 -470.36328126 118.38251707 -473 120 C-474.83499686 120.67962847 -476.67039178 121.35820212 -478.5078125 122.03125 C-498.76218552 129.90442321 -522.5822496 141.2471247 -539.90625 154.453125 C-542.20751578 156.1533139 -544.64339901 157.50024316 -547.13574219 158.89794922 C-550.27425087 160.75326983 -553.18672853 162.90884388 -556.125 165.0625 C-567.13498267 173.09907086 -567.13498267 173.09907086 -572 174 C-572 174.66 -572 175.32 -572 176 C-573.71484375 177.21875 -573.71484375 177.21875 -575.9375 178.5 C-579.05432026 180.18454879 -579.05432026 180.18454879 -581 183 C-582.66406229 184.00432786 -584.33127756 185.00343429 -586 186 C-588.90526832 188.32662567 -591.73616489 190.72878942 -594.57421875 193.13671875 C-597 195 -597 195 -599 195 C-599 195.66 -599 196.32 -599 197 C-601.03040402 198.67961679 -603.06474513 200.25764503 -605.1875 201.8125 C-610.13750528 205.46016275 -614.48401915 209.2976502 -618.6875 213.8125 C-620 215 -620 215 -622 215 C-622 215.66 -622 216.32 -622 217 C-623.26660156 218.24755859 -623.26660156 218.24755859 -625.140625 219.7734375 C-631.04442461 224.79556835 -636.45207512 230.30257195 -641.91943359 235.7890625 C-643.75635899 237.63137765 -645.59860799 239.46824878 -647.44140625 241.3046875 C-648.62271683 242.48665843 -649.80371742 243.66893929 -650.984375 244.8515625 C-651.8016507 245.66580185 -651.8016507 245.66580185 -652.63543701 246.49649048 C-655.00899178 248.88458897 -657.17352662 251.22234746 -659.25097656 253.88427734 C-659.8281543 254.58246582 -660.40533203 255.2806543 -661 256 C-661.66 256 -662.32 256 -663 256 C-663.37125 256.8353125 -663.37125 256.8353125 -663.75 257.6875 C-665.22924818 260.42410913 -666.93467439 262.67650869 -669 265 C-669.66 265 -670.32 265 -671 265 C-671.66 266.65 -672.32 268.3 -673 270 C-673.66 270 -674.32 270 -675 270 C-675.061875 270.556875 -675.12375 271.11375 -675.1875 271.6875 C-676.11370407 274.32361927 -677.49162998 275.58851292 -679.4921875 277.48046875 C-683.65369406 281.67431863 -687.06588585 286.59806792 -690.37890625 291.47265625 C-690.98460449 292.36307617 -690.98460449 292.36307617 -691.60253906 293.27148438 C-692.40168455 294.4544003 -693.19415836 295.64185419 -693.97949219 296.83398438 C-694.93700772 298.25711198 -695.96308696 299.63364005 -697 301 C-697.66 301 -698.32 301 -699 301 C-699.1546875 301.85464844 -699.1546875 301.85464844 -699.3125 302.7265625 C-700.12456536 305.41191498 -701.33552246 307.11716704 -703 309.375 C-709.51206393 318.45444847 -715.55442185 327.774297 -720.7109375 337.6953125 C-722 340 -722 340 -723.4765625 341.9296875 C-725.35308122 344.47982832 -726.63060291 347.14708939 -728 350 C-730.68421053 355.59210526 -730.68421053 355.59210526 -732.5 357.9375 C-734.13614314 360.18719682 -735.13656732 362.50748857 -736.1875 365.07324219 C-737.63267707 368.50032675 -739.32976186 371.80336099 -741 375.125 C-741.34289062 375.81464844 -741.68578125 376.50429688 -742.0390625 377.21484375 C-743.88943609 380.90852844 -745.85387961 384.46705912 -748 388 C-749.04277638 390.32254739 -750.03091322 392.64712715 -751 395 C-751.34804688 395.80824219 -751.69609375 396.61648438 -752.0546875 397.44921875 C-755.02675233 404.41317459 -757.68288608 411.46867995 -760.26806641 418.58251953 C-762.01703656 423.38155758 -763.83586297 428.14300476 -765.73193359 432.88574219 C-770.55865051 444.98816087 -774.17747429 457.30032022 -777.25 469.95703125 C-778.14470376 473.58710536 -779.09791405 477.20052808 -780.0625 480.8125 C-780.38347656 482.01519531 -780.70445312 483.21789062 -781.03515625 484.45703125 C-781.67189772 486.79518717 -782.33935273 489.1252222 -783.0390625 491.4453125 C-784.07905604 495.29244309 -784.73716291 499.12669101 -785.3125 503.0625 C-786.2475178 509.23827367 -787.22743868 515.40377139 -788.26953125 521.5625 C-788.38079849 522.22060165 -788.49206573 522.87870331 -788.60670471 523.55674744 C-789.16290483 526.84390292 -789.72246459 530.13041384 -790.28637695 533.41625977 C-792.35570473 545.65595931 -793.28303646 557.81007665 -794 570.1875 C-794.1245157 572.31034678 -794.24962741 574.43315682 -794.37524414 576.55593872 C-794.45847473 577.96497486 -794.54099326 579.37405324 -794.62280273 580.78317261 C-794.89474294 585.41753176 -795.22233571 590.04583388 -795.5625 594.67578125 C-796.5109019 609.16630427 -795.74685642 623.52954048 -794.93798828 638.00952148 C-794.75214421 641.39840026 -794.58493721 644.78788068 -794.41796875 648.17773438 C-793.68625312 661.90395787 -792.03801169 675.15922303 -789.42755127 688.6512146 C-788.82056651 691.9857315 -788.39978149 695.32203177 -788 698.6875 C-785.30325244 719.75002837 -779.62177726 740.21654186 -773.1484375 760.3984375 C-772.05829084 763.81719677 -771.02580451 767.24900327 -770 770.6875 C-768.36418605 776.01204181 -766.45568519 781.17987052 -764.41015625 786.359375 C-763.3604246 789.06948552 -762.35024597 791.78017928 -761.37109375 794.515625 C-758.20989452 803.33314164 -754.81926392 811.88334171 -750.75 820.3203125 C-748.8881651 824.1873602 -747.19337689 828.11947923 -745.5 832.0625 C-742.27518266 839.52332916 -738.70301479 846.76305785 -735 854 C-733.85059415 856.24817709 -732.70454722 858.4980759 -731.5625 860.75 C-731.06878906 861.71421875 -730.57507813 862.6784375 -730.06640625 863.671875 C-729 866 -729 866 -729 868 C-728.34 868 -727.68 868 -727 868 C-726.46632813 868.969375 -725.93265625 869.93875 -725.3828125 870.9375 C-720.20960674 880.26829123 -714.7484051 889.36548478 -709.02368164 898.36743164 C-708.14833365 899.76343736 -707.30688407 901.18060155 -706.47265625 902.6015625 C-704.11503201 906.44130065 -701.34844092 909.97387777 -698.64453125 913.57421875 C-697 916 -697 916 -697 918 C-696.34 918 -695.68 918 -695 918 C-694.67 919.32 -694.34 920.64 -694 922 C-693.34 922 -692.68 922 -692 922 C-690.39902892 924.0730911 -688.90923063 926.15020738 -687.4375 928.3125 C-680.94011649 937.62647745 -673.78641721 946.19506721 -666.1328125 954.58203125 C-663.45395398 957.61905217 -661.01560071 960.80764907 -658.5625 964.02734375 C-656.04471191 967.20605122 -653.14808045 969.93109751 -650.1875 972.6875 C-649 974 -649 974 -649 976 C-648.360625 976.268125 -647.72125 976.53625 -647.0625 976.8125 C-645 978 -645 978 -644 981 C-641.99983534 982.20882096 -641.99983534 982.20882096 -640 983 C-640 983.66 -640 984.32 -640 985 C-639.443125 985.2475 -638.88625 985.495 -638.3125 985.75 C-632.58765282 988.84451199 -628.3025663 993.63164609 -623.8125 998.25 C-612.36401942 1009.90166944 -612.36401942 1009.90166944 -599 1019 C-599 1019.66 -599 1020.32 -599 1021 C-597.68 1021.33 -596.36 1021.66 -595 1022 C-595 1022.66 -595 1023.32 -595 1024 C-593.88625 1024.4021875 -593.88625 1024.4021875 -592.75 1024.8125 C-590.10938051 1025.95276751 -588.14447156 1027.09380306 -586 1029 C-586 1029.66 -586 1030.32 -586 1031 C-585.14535156 1031.13921875 -585.14535156 1031.13921875 -584.2734375 1031.28125 C-581.44062126 1032.17684826 -579.87640367 1033.56363916 -577.625 1035.5 C-571.96666939 1040.15980168 -565.94128221 1043.9902595 -559.75048828 1047.88427734 C-556.98830694 1049.64483086 -554.27780768 1051.48077179 -551.5625 1053.3125 C-548.06656565 1055.65233485 -544.58192044 1057.91490483 -540.8984375 1059.9453125 C-538.28150441 1061.39916422 -535.70681265 1062.9222296 -533.125 1064.4375 C-528.8187182 1066.95262598 -524.49460297 1069.42484337 -520.125 1071.828125 C-518.72428064 1072.60058053 -517.32827784 1073.38166032 -515.9375 1074.171875 C-510.1618896 1077.44188971 -504.25079863 1080.41935742 -498.3046875 1083.36328125 C-495.71649614 1084.64513962 -493.13767122 1085.94237415 -490.5625 1087.25 C-487.08538695 1088.95805553 -483.57508134 1090.51443222 -480 1092 C-479.16082031 1092.35835937 -478.32164062 1092.71671875 -477.45703125 1093.0859375 C-469.06208734 1096.64330914 -460.55686443 1099.8585235 -452 1103 C-450.82179688 1103.43441406 -449.64359375 1103.86882812 -448.4296875 1104.31640625 C-441.52272075 1106.82588506 -434.57206644 1109.10913232 -427.54785156 1111.26147461 C-424.23491427 1112.28124573 -420.97042187 1113.34217635 -417.75 1114.625 C-414.65606284 1115.75944362 -411.71800242 1116.61623223 -408.52734375 1117.3984375 C-407.46209473 1117.66060059 -406.3968457 1117.92276367 -405.29931641 1118.19287109 C-404.21054199 1118.45922363 -403.12176758 1118.72557617 -402 1119 C-400.49252197 1119.37439209 -400.49252197 1119.37439209 -398.95458984 1119.75634766 C-387.29625875 1122.64861647 -375.67636631 1125.43012185 -363.81640625 1127.359375 C-360.98253955 1127.83507013 -358.19344028 1128.36687658 -355.3828125 1128.953125 C-293.80580236 1141.39103932 -223.18331946 1141.40077144 -162.03417969 1126.70019531 C-159.16024523 1126.03697967 -156.29201773 1125.48614113 -153.38671875 1124.98046875 C-147.79697364 1123.9974899 -142.31368053 1122.70280675 -136.8125 1121.3125 C-135.7807666 1121.05194824 -134.7490332 1120.79139648 -133.68603516 1120.52294922 C-115.59321341 1115.89621126 -97.90906002 1110.51914564 -80.43798828 1103.91699219 C-78.23349105 1103.08782219 -76.02350071 1102.27741469 -73.80859375 1101.4765625 C-55.24098674 1094.72596728 -37.12439857 1086.80537989 -19.9375 1077.04296875 C-18 1076 -18 1076 -14.5625 1074.5625 C-10.64978254 1072.84639585 -7.14923926 1070.75414567 -3.52734375 1068.5 C-1 1067 -1 1067 1.69921875 1065.671875 C6.17659677 1063.40404329 10.45027033 1060.83577289 14.75 1058.25 C16.08635498 1057.44755859 16.08635498 1057.44755859 17.44970703 1056.62890625 C22.74219959 1053.42802845 27.93104837 1050.14919663 32.9296875 1046.5 C36.48876144 1043.9213502 40.1754951 1041.53615346 43.859375 1039.140625 C49.69206826 1035.32572833 55.24761018 1031.34371556 60.640625 1026.9296875 C62.87772397 1025.10000722 65.14720939 1023.32488675 67.4375 1021.5625 C75.28795743 1015.47043427 82.93602282 1009.19316509 90.22265625 1002.43359375 C92 1001 92 1001 94 1001 C94 1000.34 94 999.68 94 999 C95.5390625 997.73828125 95.5390625 997.73828125 97.625 996.3125 C101.13514534 993.77534232 103.72744006 991.1359097 106.4375 987.78515625 C108.15784639 985.8196605 110.00715891 984.18712115 112 982.5 C115.20330749 979.7829631 117.84618578 976.91680107 120.5078125 973.6796875 C122.04261047 971.95203534 123.65377602 970.52911749 125.4375 969.0625 C128.67955355 966.37379475 131.37371071 963.42838807 134.09765625 960.22265625 C137.01616165 956.81273926 140.05762384 953.51513531 143.08203125 950.19921875 C145.12519492 947.95177481 145.12519492 947.95177481 147 945 C147.66 945 148.32 945 149 945 C149.66 943.35 150.32 941.7 151 940 C151.66 940 152.32 940 153 940 C153.26498291 939.42564209 153.52996582 938.85128418 153.80297852 938.25952148 C155.05784205 935.8908162 156.48622236 933.94567255 158.15234375 931.84765625 C158.76400391 931.07099609 159.37566406 930.29433594 160.00585938 929.49414062 C160.64330078 928.69169922 161.28074219 927.88925781 161.9375 927.0625 C166.65770681 921.19491663 166.65770681 921.19491663 170.81640625 914.93359375 C171.20699219 914.29550781 171.59757812 913.65742187 172 913 C172.66 913 173.32 913 174 913 C174.25007813 912.27554688 174.50015625 911.55109375 174.7578125 910.8046875 C176.10743618 907.75742396 177.72577389 905.6635199 179.875 903.125 C183.08673727 899.21632155 185.63788029 895.46178168 188 891 C189.625 888.0625 189.625 888.0625 191 886 C191.66 886 192.32 886 193 886 C193.27972656 885.26007812 193.55945312 884.52015625 193.84765625 883.7578125 C194.88544757 881.2741492 196.01996877 879.15482767 197.4375 876.875 C201.98403071 869.42713795 206.31695235 861.85639919 210.67333984 854.29638672 C211.84509467 852.26813389 213.02415263 850.24443261 214.20703125 848.22265625 C218.8363463 840.25146879 223.02852361 832.1288969 227.08154297 823.85595703 C228.4168375 821.15768244 229.80879962 818.48880074 231.1875 815.8125 C233.78011966 810.64833888 235.84013406 805.36213922 237.8515625 799.94921875 C238.78726535 797.54630837 239.79006896 795.33233063 241 793.0625 C244.01217101 787.34678206 245.91068589 781.09668708 248 775 C248.66 775 249.32 775 250 775 C248.6972465 786.05094347 245.36418293 796.43476223 242 807 C241.77376953 807.71188477 241.54753906 808.42376953 241.31445312 809.15722656 C238.51608439 817.89681282 235.37869336 826.47018397 232 835 C231.41902923 836.49469778 230.83831747 837.98949625 230.2578125 839.484375 C221.87443798 860.92241431 212.50503078 881.99236749 200.39453125 901.609375 C198.78643288 904.36611506 197.39534689 907.19248417 196 910.0625 C193.754493 914.65370722 191.23488387 918.82542324 188.32421875 923.01953125 C186.61032744 925.58278462 185.29065116 928.20358916 184 931 C183.34 931 182.68 931 182 931 C181.7215625 931.74378906 181.443125 932.48757813 181.15625 933.25390625 C175.87631123 945.79376082 165.2020812 957.50154522 157.0234375 968.3203125 C155.78998117 969.95380872 154.56400593 971.59303459 153.3515625 973.2421875 C150.42781352 977.21786734 147.34417948 980.96393226 144.06640625 984.65234375 C141.42419621 987.65417406 138.83487623 990.69878232 136.25 993.75 C135.77796143 994.30518311 135.30592285 994.86036621 134.81958008 995.43237305 C132.89687504 997.70409869 131.0244556 999.96567242 129.296875 1002.390625 C128.86890625 1002.92171875 128.4409375 1003.4528125 128 1004 C127.34 1004 126.68 1004 126 1004 C125.7525 1004.556875 125.505 1005.11375 125.25 1005.6875 C122.61637464 1010.55970692 119.07458919 1013.84122635 114.87109375 1017.3125 C112.15589819 1019.76127762 109.88512655 1022.53343122 107.578125 1025.36328125 C106 1027 106 1027 103 1028 C102.67 1028.99 102.34 1029.98 102 1031 C100.546875 1032.4296875 100.546875 1032.4296875 98.75 1033.875 C95.65363331 1036.43424186 92.80622934 1039.11992252 90 1042 C86.22747709 1045.87179983 82.37130867 1049.79584176 78 1053 C77.34 1053 76.68 1053 76 1053 C75.67 1053.99 75.34 1054.98 75 1056 C72.76953125 1057.875 72.76953125 1057.875 69.8125 1060 C68.72152003 1060.79531873 67.63172622 1061.59226647 66.54296875 1062.390625 C65.96724121 1062.81150391 65.39151367 1063.23238281 64.79833984 1063.66601562 C61.69448758 1065.9684116 58.66009087 1068.3580991 55.625 1070.75 C55.05499268 1071.19730469 54.48498535 1071.64460938 53.89770508 1072.10546875 C50.58087017 1074.7151853 50.58087017 1074.7151853 47.35839844 1077.43945312 C43.29456751 1081 43.29456751 1081 40 1081 C40 1081.66 40 1082.32 40 1083 C37.98828125 1084.62109375 37.98828125 1084.62109375 35.3125 1086.4375 C34.44238281 1087.03433594 33.57226562 1087.63117188 32.67578125 1088.24609375 C30.15297184 1089.89973087 27.58763676 1091.45074075 25 1093 C23.5776897 1093.94993717 22.16093516 1094.90824813 20.75 1095.875 C17.09660765 1098.32661855 13.37362629 1100.49530004 9.5078125 1102.58984375 C6.49036753 1104.28656904 3.56325429 1106.10716902 0.625 1107.9375 C-5.1442209 1111.51307528 -11.01609867 1114.80155641 -17 1118 C-18.72930111 1118.95809072 -20.45846498 1119.91642917 -22.1875 1120.875 C-42.02319493 1131.65406111 -62.61246073 1141.71339387 -83.90673828 1149.24316406 C-87.28131301 1150.46326922 -90.62430925 1151.76454808 -93.97241211 1153.05517578 C-115.70718161 1161.42660586 -115.70718161 1161.42660586 -125.87890625 1163.51171875 C-128.02511756 1164.00578213 -130.04579728 1164.65095734 -132.125 1165.375 C-156.89832898 1173.90564198 -184.55488848 1179.23731129 -210.671875 1181.5703125 C-213.72872937 1181.84629798 -216.7356145 1182.25328142 -219.765625 1182.7421875 C-249.15720495 1187.31931803 -279.58223485 1186.26828431 -309.23712158 1185.85583496 C-311.32636998 1185.82754534 -313.41569688 1185.80444227 -315.50506592 1185.78723145 C-329.79836494 1185.65137966 -343.37673839 1184.06184126 -357.42338562 1181.4478302 C-361.18718878 1180.79365985 -364.95287512 1180.35565961 -368.75 1179.9375 C-381.96702763 1178.46947652 -394.97883015 1176.89788416 -407.71875 1172.96875 C-411.08483627 1171.9749531 -414.43886044 1171.21199288 -417.875 1170.5 C-431.16714809 1167.74069247 -444.10286147 1164.2144321 -457 1160 C-458.80017578 1159.41412109 -458.80017578 1159.41412109 -460.63671875 1158.81640625 C-463.74612143 1157.79114374 -466.84891775 1156.74864608 -469.94824219 1155.69335938 C-472.13100507 1154.95572889 -474.31935135 1154.2361594 -476.5078125 1153.515625 C-490.39511548 1148.87284937 -503.68011683 1143.06130832 -517 1137 C-517.76779785 1136.65404785 -518.5355957 1136.3080957 -519.32666016 1135.95166016 C-526.79970317 1132.58305588 -534.10011139 1128.95623128 -541.30493164 1125.05004883 C-545.84166976 1122.59410139 -550.43377135 1120.27705383 -555.0625 1118 C-561.91081333 1114.61127133 -568.54847795 1110.96017972 -575.14013672 1107.09033203 C-577.14270902 1105.91633782 -579.15122039 1104.75291188 -581.16015625 1103.58984375 C-588.19515314 1099.50290606 -595.18167351 1095.34227777 -602.0625 1091 C-602.96548828 1090.43937866 -602.96548828 1090.43937866 -603.88671875 1089.86743164 C-605.29449094 1088.96651582 -606.65349042 1087.99014334 -608 1087 C-608 1086.34 -608 1085.68 -608 1085 C-608.53496094 1084.92910156 -609.06992187 1084.85820313 -609.62109375 1084.78515625 C-612.94935537 1083.68666596 -615.36855436 1081.60479464 -618.0625 1079.4375 C-619.22300634 1078.5235295 -620.38448052 1077.61078669 -621.546875 1076.69921875 C-622.12630859 1076.24337402 -622.70574219 1075.7875293 -623.30273438 1075.31787109 C-625.76565937 1073.40549061 -628.28461804 1071.57530024 -630.8125 1069.75 C-631.69164062 1069.11320312 -632.57078125 1068.47640625 -633.4765625 1067.8203125 C-635.13527097 1066.62378286 -636.79665918 1065.43095773 -638.4609375 1064.2421875 C-639.19570313 1063.70851563 -639.93046875 1063.17484375 -640.6875 1062.625 C-641.65236328 1061.93277344 -641.65236328 1061.93277344 -642.63671875 1061.2265625 C-643.08660156 1060.82179688 -643.53648437 1060.41703125 -644 1060 C-644 1059.34 -644 1058.68 -644 1058 C-644.556875 1057.938125 -645.11375 1057.87625 -645.6875 1057.8125 C-648.96489609 1056.66098245 -650.6195768 1054.4965414 -653 1052 C-653.825 1051.34 -654.65 1050.68 -655.5 1050 C-658.20956639 1047.83234689 -660.54785636 1045.45566683 -663 1043 C-664.97987133 1041.12366445 -666.98757896 1039.27881418 -669 1037.4375 C-669.50789062 1036.96892578 -670.01578125 1036.50035156 -670.5390625 1036.01757812 C-672.9206352 1033.83446982 -675.31445927 1031.75774673 -677.875 1029.78515625 C-678.57625 1029.19605469 -679.2775 1028.60695313 -680 1028 C-680 1027.34 -680 1026.68 -680 1026 C-680.89187012 1025.59491211 -680.89187012 1025.59491211 -681.80175781 1025.18164062 C-683.98591927 1024.00756894 -685.42293638 1022.83502264 -687.171875 1021.09375 C-687.7501001 1020.51939209 -688.3283252 1019.94503418 -688.92407227 1019.35327148 C-689.52662842 1018.74169189 -690.12918457 1018.1301123 -690.75 1017.5 C-691.37253662 1016.87359619 -691.99507324 1016.24719238 -692.63647461 1015.60180664 C-696.85986141 1011.29924165 -700.72416767 1006.83124337 -704.3984375 1002.046875 C-706.40729753 999.47945389 -708.6337348 997.23835897 -711 995 C-714.35306205 991.74007856 -717.57175755 988.36718569 -720.75 984.9375 C-721.52859375 984.10089844 -722.3071875 983.26429688 -723.109375 982.40234375 C-724.9527176 980.06007991 -725.32834898 978.79232693 -726 976 C-726.99 975.67 -727.98 975.34 -729 975 C-730.82421875 972.78515625 -730.82421875 972.78515625 -732.6875 970.0625 C-733.62142578 968.71865234 -733.62142578 968.71865234 -734.57421875 967.34765625 C-736 965 -736 965 -736 963 C-736.99 962.67 -737.98 962.34 -739 962 C-740.04214937 960.35935913 -741.03318943 958.68613614 -742 957 C-744.08712731 954.18105716 -746.30158209 951.45802503 -748.50390625 948.72851562 C-750.79769252 945.81874224 -752.17359713 943.58388998 -753 940 C-753.99 939.67 -754.98 939.34 -756 939 C-760.30814263 933.81092064 -763.34628758 927.59749761 -766.5078125 921.67578125 C-767.86110163 919.24907169 -769.30359595 916.97665347 -770.875 914.6875 C-773.88128167 910.30038029 -776.49730901 905.71692421 -779.10449219 901.0871582 C-780.86820156 897.96085204 -782.6703857 894.88548312 -784.625 891.875 C-787.84327272 886.80702236 -790.36057515 881.38393218 -793 876 C-793.64809275 874.7088075 -794.29790445 873.41847671 -794.94921875 872.12890625 C-801.83011886 858.49727631 -808.20205971 844.75637401 -813.62890625 830.47265625 C-814.91191361 827.22310201 -816.31179982 824.05816328 -817.75 820.875 C-834.71466136 781.80353899 -845.11153897 737.61790504 -849.96166992 695.38061523 C-850.48205554 690.88263633 -851.08775304 686.47951355 -852.015625 682.046875 C-853.62648497 673.44317587 -853.76070078 664.66394708 -854.125 655.9375 C-854.16636078 654.97692688 -854.20772156 654.01635376 -854.25033569 653.02667236 C-857.81922092 568.62240644 -848.00753794 485.92798246 -815.90332031 407.23583984 C-814.66547129 404.17199624 -813.48611197 401.08903528 -812.3125 398 C-809.02947921 389.42461793 -805.61752624 380.96491187 -801.42578125 372.7890625 C-800.03999171 370.07823036 -798.69767533 367.34793355 -797.35620117 364.61499023 C-792.60250331 354.97393741 -787.43232454 345.57909313 -782.20849609 336.18652344 C-780.6738246 333.40985315 -779.18105876 330.61145264 -777.6875 327.8125 C-775.55049252 323.8906056 -773.21190535 320.18532505 -770.69140625 316.5 C-768.61464424 313.43042104 -766.61995511 310.31047928 -764.625 307.1875 C-761.09577017 301.67614067 -757.50771275 296.20832534 -753.85546875 290.77734375 C-752.63289314 288.9473411 -751.4266586 287.10629932 -750.23828125 285.25390625 C-749.43970703 284.01447266 -749.43970703 284.01447266 -748.625 282.75 C-748.16351562 282.02296875 -747.70203125 281.2959375 -747.2265625 280.546875 C-746.82179688 280.03640625 -746.41703125 279.5259375 -746 279 C-745.34 279 -744.68 279 -744 279 C-743.896875 278.360625 -743.79375 277.72125 -743.6875 277.0625 C-743.460625 276.381875 -743.23375 275.70125 -743 275 C-742.01 274.67 -741.02 274.34 -740 274 C-739.26676204 271.98491642 -739.26676204 271.98491642 -739 270 C-738.34 270 -737.68 270 -737 270 C-736.74089844 269.25621094 -736.48179687 268.51242187 -736.21484375 267.74609375 C-734.96157073 264.91313255 -733.68614762 263.29210925 -731.5625 261.0625 C-728.64708323 257.89674333 -725.92917458 254.66409085 -723.32421875 251.23754883 C-712.60541913 237.17307669 -699.93010341 224.84081273 -687.49118042 212.31695557 C-686.26201586 211.07904729 -685.03421684 209.83978139 -683.80789185 208.59906006 C-677.47455833 202.20018875 -671.17449556 196.03112644 -663.99536133 190.56445312 C-662.20048863 189.15719211 -660.63545691 187.70867827 -659.0625 186.0625 C-657 184 -657 184 -654 183 C-652.30284002 181.36439505 -650.64189196 179.69107845 -649 178 C-639.88323422 169.46650036 -630.19297532 162.12876104 -619.81005859 155.22265625 C-617.17778951 153.44461423 -614.6200613 151.57089242 -612.0625 149.6875 C-607.45922662 146.3149393 -602.77706057 143.11999602 -598 140 C-596.71728147 139.14347838 -595.43474631 138.28668213 -594.15234375 137.4296875 C-586.29927633 132.22157058 -578.47225796 127.47500377 -569.953125 123.4375 C-566.40951283 121.71256709 -563.10782219 119.86548609 -560 117.4375 C-558 116 -558 116 -555.7734375 115.125 C-551.43923422 113.36690064 -547.44099941 111.01334454 -543.3515625 108.75390625 C-540.6333957 107.33146232 -537.92272616 106.062519 -535.09375 104.88208008 C-532.44769033 103.76731637 -529.82452652 102.60419185 -527.19921875 101.44140625 C-526.13896484 100.97283203 -525.07871094 100.50425781 -523.98632812 100.02148438 C-521.79835561 99.05380204 -519.6108502 98.08506284 -517.42382812 97.11523438 C-507.01960418 92.52124331 -496.51878017 88.3975609 -485.8125 84.5625 C-484.71405762 84.16853027 -483.61561523 83.77456055 -482.48388672 83.36865234 C-471.69888401 79.51425659 -460.94990792 75.76255542 -449.88623047 72.78076172 C-447.13310417 72.03600636 -444.38633654 71.27158481 -441.640625 70.5 C-432.15310729 67.85175562 -422.73420247 65.39047339 -413.046875 63.58203125 C-410.61623895 63.11771744 -408.26098156 62.58329253 -405.875 61.9375 C-401.48591649 60.87562496 -397.10424991 60.20317028 -392.63671875 59.5625 C-389.84598513 59.13085055 -387.09869066 58.63383377 -384.328125 58.09765625 C-359.25475626 53.50480931 -333.46869279 51.1412138 -308 51 C-306.3899713 50.98647778 -304.77994538 50.97262256 -303.16992188 50.95849609 C-290.44559727 50.8554999 -277.72412668 50.88465136 -265 51 C-264.23606934 51.0062439 -263.47213867 51.01248779 -262.68505859 51.0189209 C-241.20863508 51.20661843 -220.06619154 52.96513664 -198.72924805 55.28320312 C-192.26383562 55.98300158 -185.79241725 56.57561948 -179.3125 57.125 C-172.94329692 57.67778076 -166.67580812 58.44700747 -160.3671875 59.50390625 C-156.08961634 60.13412845 -151.80408387 60.53493308 -147.5 60.9375 C-140.48478742 61.596817 -133.53044915 62.4546449 -126.5625 63.5 C-118.51909021 64.70400001 -110.48527992 65.57985973 -102.38525391 66.30078125 C-96.44593159 66.83696231 -90.57611742 67.59819615 -84.6796875 68.49609375 C-79.13989066 69.25472835 -73.57966075 69.77815117 -68.01342773 70.30273438 C-63.31779282 70.74873302 -58.66343514 71.29075616 -54 72 C-62.14264314 69.82132568 -70.28805101 67.6530809 -78.4375 65.5 C-79.15010986 65.31091064 -79.86271973 65.12182129 -80.59692383 64.92700195 C-85.5599168 63.61818308 -90.53521817 62.36177694 -95.515625 61.12109375 C-104.12527108 58.97614915 -112.72005122 56.77519565 -121.3125 54.5625 C-122.07591705 54.36612946 -122.83933411 54.16975891 -123.62588501 53.96743774 C-133.05759095 51.54122672 -142.48382703 49.09643753 -151.89770508 46.60180664 C-156.58902012 45.36166111 -161.29002825 44.16718062 -166 43 C-175.02518056 40.76204872 -184.01237792 38.38367368 -193 36 C-193 35.34 -193 34.68 -193 34 C-192.34 34 -191.68 34 -191 34 C-190.60361328 33.09652832 -190.60361328 33.09652832 -190.19921875 32.17480469 C-188.94433007 29.89904158 -187.84386773 28.78940472 -185.8125 27.203125 C-185.19632813 26.71972656 -184.58015625 26.23632812 -183.9453125 25.73828125 C-183.30335938 25.24714844 -182.66140625 24.75601563 -182 24.25 C-181.35804688 23.74339844 -180.71609375 23.23679688 -180.0546875 22.71484375 C-175.26844677 19 -175.26844677 19 -173 19 C-173 18.34 -173 17.68 -173 17 C-169.69173791 15.07594988 -166.37764781 13.16215769 -163.0625 11.25 C-162.13630859 10.71117187 -161.21011719 10.17234375 -160.25585938 9.6171875 C-154.6276572 6.37850274 -148.98531611 3.51345985 -143 1 C-142.02933594 0.56816406 -141.05867187 0.13632813 -140.05859375 -0.30859375 C-131.88101617 -3.83068007 -123.52580494 -6.4767867 -115 -9 C-113.90816406 -9.34417969 -112.81632813 -9.68835938 -111.69140625 -10.04296875 C-75.53750966 -19.4162012 -33.94933533 -15.12959509 0 0 Z " fill="#00A79D" transform="translate(891,120)"/>
<path d="M0 0 C5.950736 1.88862011 11.81842349 3.8588775 17.5625 6.3125 C22.85754125 8.57283381 28.21830024 10.58966488 33.625 12.5625 C41.58340906 15.47199281 49.45894088 18.49196778 57.2578125 21.80859375 C65.52381891 25.32037868 73.79189186 28.7435476 82.21899414 31.85107422 C88.56885533 34.19439015 94.84385061 36.70530607 101.11914062 39.24121094 C104.34718492 40.54349049 107.58011946 41.83353034 110.8125 43.125 C111.95332031 43.58132813 113.09414063 44.03765625 114.26953125 44.5078125 C114.85718262 44.74258301 115.44483398 44.97735352 116.05029297 45.21923828 C117.47198279 45.78855509 118.89275836 46.36015648 120.31298828 46.93310547 C126.26293495 49.32775237 132.24694112 51.61741067 138.25 53.875 C144.31245816 56.16519099 150.31761263 58.51584815 156.25 61.125 C161.96300164 63.62951494 167.75310552 65.71340292 173.6472168 67.73730469 C180.59678643 70.14914387 187.27229501 73.02564621 194 76 C194 84.58 194 93.16 194 102 C199.28 102 204.56 102 210 102 C210 72.96 210 43.92 210 14 C214.46671317 15.78668527 216.99002082 17.33068311 220.6875 20.25 C221.23639893 20.68038574 221.78529785 21.11077148 222.35083008 21.55419922 C223.56760779 22.50826546 224.78260731 23.46460261 225.99609375 24.42285156 C228.15619987 26.12293509 230.32684335 27.80882125 232.5 29.4921875 C245.17234879 39.30987834 245.17234879 39.30987834 251.3125 44.25 C255.11725506 47.3083361 258.95353661 50.32303277 262.8125 53.3125 C263.35237549 53.73370117 263.89225098 54.15490234 264.44848633 54.58886719 C266.86311651 56.4515283 269.24356008 58.14073093 271.88671875 59.66796875 C272.58410156 60.10753906 273.28148437 60.54710937 274 61 C274 61.66 274 62.32 274 63 C275.32 63.66 276.64 64.32 278 65 C278.33 79.85 278.66 94.7 279 110 C280.32 110.66 281.64 111.32 283 112 C284.30859375 113.55078125 284.30859375 113.55078125 285.4375 115.3125 C287.58718403 118.64563377 290.17222204 121.22183218 293 124 C299.07113718 130.41598503 304.84044417 136.93112129 310.29296875 143.8828125 C312.36165897 146.44855644 314.60688724 148.73624469 317 151 C320.65324304 154.54851263 323.99942805 158.27288932 327.25 162.1875 C331.38605923 167.12374808 335.61229827 171.95759863 339.94140625 176.7265625 C344.53937204 181.80439189 349.01299156 186.99106805 353.453125 192.20703125 C354.57525219 193.50767867 355.71275511 194.79511126 356.859375 196.07421875 C357.48328125 196.77160156 358.1071875 197.46898437 358.75 198.1875 C359.32234375 198.82042969 359.8946875 199.45335937 360.484375 200.10546875 C362 202 362 202 363.015625 204.17578125 C363.92253835 206.35457602 363.92253835 206.35457602 367 207 C368.56221756 208.73768402 370.05443479 210.53913218 371.5 212.375 C375.04211138 216.87504544 375.04211138 216.87504544 379 221 C378.67 221.99 378.34 222.98 378 224 C375.20629883 224.90380859 375.20629883 224.90380859 371.45703125 225.6484375 C370.78531387 225.78607513 370.1135965 225.92371277 369.42152405 226.06552124 C367.22075715 226.51403874 365.01681981 226.94431796 362.8125 227.375 C360.53759314 227.83457343 358.26365436 228.2987522 355.98968506 228.76293945 C354.47165916 229.07232006 352.95330562 229.38009726 351.43463135 229.6862793 C345.22410617 230.94014997 339.04588216 232.31353435 332.875 233.75 C325.70560844 235.40737248 318.52782495 236.91361833 311.3046875 238.3203125 C308.17541506 238.96392173 305.0936035 239.70403305 302 240.5 C296.41991995 241.93402856 290.80513358 243.07129734 285.15234375 244.1796875 C280.42792868 245.10730712 275.7131631 246.07946753 271 247.0625 C270.21101318 247.22484131 269.42202637 247.38718262 268.60913086 247.55444336 C265.12911671 248.28285283 261.7330429 249.07663705 258.3125 250.05859375 C255.19976052 250.94322844 252.19714368 251.52382966 249 252 C244.53503653 252.70819743 240.34311734 253.73654768 236 255 C233.3293098 255.50768711 230.65183418 255.9651248 227.97265625 256.42578125 C224.85396704 257.02820873 221.81869656 257.80693696 218.75 258.625 C209.79484057 260.83486492 209.79484057 260.83486492 206 260 C204.20602942 258.16162421 202.82839979 256.24216475 201.41015625 254.1015625 C199.13602602 250.7124155 196.15935313 248.07939775 193.1875 245.3125 C192 244 192 244 192 242 C191.40574219 241.7421875 190.81148437 241.484375 190.19921875 241.21875 C187.80697497 239.89303053 186.55218361 238.59621136 184.8125 236.5 C182.14032065 233.33782614 179.41803214 230.24374983 176.625 227.1875 C172.62846624 222.76812478 168.8556503 218.20050973 165.140625 213.54296875 C162.89142079 210.87101265 160.50132844 208.4358272 158 206 C154.12820017 202.22747709 150.20415824 198.37130867 147 194 C147 193.34 147 192.68 147 192 C146.41992188 191.76667969 145.83984375 191.53335938 145.2421875 191.29296875 C142.4574933 189.68716077 141.0837117 187.86187379 139.125 185.3125 C135.24567949 180.43123579 131.15370548 175.84685318 126.875 171.3125 C122.61724025 166.79953439 118.42197492 162.26320209 114.375 157.55859375 C113.11808884 156.13385639 111.78094747 154.78094747 110.4375 153.4375 C107.45724046 150.45724046 104.4956258 147.40468537 102 144 C102 143.34 102 142.68 102 142 C101.01 141.67 100.02 141.34 99 141 C97.56197818 139.4089357 96.19674665 137.7513985 94.875 136.0625 C89.65767034 129.528092 84.22770558 123.22770558 78.3125 117.3125 C75.37408612 114.37408612 72.46029525 111.35648527 70 108 C70 107.34 70 106.68 70 106 C69.40316406 105.73960937 68.80632812 105.47921875 68.19140625 105.2109375 C65.83893217 103.91099639 64.63949215 102.6882846 62.9375 100.625 C59.87507597 97.00277803 56.7179075 93.4839679 53.5 90 C46.74144487 82.64258555 46.74144487 82.64258555 43.8125 79.375 C43.26207031 78.76398438 42.71164062 78.15296875 42.14453125 77.5234375 C41 76 41 76 41 74 C40.01 73.67 39.02 73.34 38 73 C36.7890625 71.546875 36.7890625 71.546875 35.625 69.75 C32.91774243 65.77065755 29.70430689 62.58676849 26.1875 59.3125 C25 58 25 58 25 56 C24.41476562 55.75507812 23.82953125 55.51015625 23.2265625 55.2578125 C20.6399512 53.79660401 19.2439733 52.17210816 17.375 49.875 C16.29290197 48.54718539 15.17594761 47.24546176 14 46 C13.34 46 12.68 46 12 46 C10.61096733 47.62053812 9.28667172 49.29705213 8 51 C6.71332828 52.70294787 5.38903267 54.37946188 4 56 C3.34 56 2.68 56 2 56 C1.62875 56.82757812 1.62875 56.82757812 1.25 57.671875 C-0.24234474 60.45136707 -2.03672523 62.7814707 -4 65.25 C-4.70125 66.14203125 -5.4025 67.0340625 -6.125 67.953125 C-6.74375 68.62859375 -7.3625 69.3040625 -8 70 C-8.66 70 -9.32 70 -10 70 C-10.27312012 70.59079346 -10.54624023 71.18158691 -10.82763672 71.7902832 C-11.96551538 73.93500202 -13.16075981 75.53715051 -14.7578125 77.35546875 C-15.29752686 77.97389648 -15.83724121 78.59232422 -16.39331055 79.22949219 C-16.96476807 79.87563477 -17.53622559 80.52177734 -18.125 81.1875 C-18.70741455 81.85297852 -19.2898291 82.51845703 -19.88989258 83.20410156 C-23.7313786 87.58676937 -27.60100228 91.94457639 -31.51171875 96.265625 C-33.18004565 98.13911137 -33.18004565 98.13911137 -35 101 C-35.66 101 -36.32 101 -37 101 C-37.3403125 102.0828125 -37.3403125 102.0828125 -37.6875 103.1875 C-39.26994446 106.57845242 -41.34044297 108.3629181 -44 111 C-46.44902618 113.82141759 -48.80275483 116.72331173 -51.15820312 119.62304688 C-52.39677462 121.11787454 -53.69404891 122.56366409 -55 124 C-55.66 124 -56.32 124 -57 124 C-57.26167969 124.56847656 -57.52335938 125.13695312 -57.79296875 125.72265625 C-59.0966663 128.18238334 -60.59865763 130.24484579 -62.3125 132.4375 C-62.88613281 133.17871094 -63.45976562 133.91992188 -64.05078125 134.68359375 C-66 137 -66 137 -68.33203125 139.328125 C-71.51903535 142.51979529 -74.44035873 145.89018408 -77.375 149.3125 C-78.52586689 150.64858807 -79.67690703 151.98452692 -80.828125 153.3203125 C-81.37533203 153.95614258 -81.92253906 154.59197266 -82.48632812 155.24707031 C-84.84620648 157.97996169 -87.23628261 160.68596616 -89.6328125 163.38671875 C-91.08792584 165.05512133 -91.08792584 165.05512133 -92.5546875 167.20703125 C-93.03164063 167.79871094 -93.50859375 168.39039063 -94 169 C-94.66 169 -95.32 169 -96 169 C-96.226875 169.721875 -96.45375 170.44375 -96.6875 171.1875 C-98.26994446 174.57845242 -100.34044297 176.3629181 -103 179 C-105.44902618 181.82141759 -107.80275483 184.72331173 -110.15820312 187.62304688 C-111.39677462 189.11787454 -112.69404891 190.56366409 -114 192 C-114.66 192 -115.32 192 -116 192 C-116.26167969 192.56847656 -116.52335937 193.13695312 -116.79296875 193.72265625 C-118.0966663 196.18238334 -119.59865763 198.24484579 -121.3125 200.4375 C-121.88613281 201.17871094 -122.45976562 201.91992188 -123.05078125 202.68359375 C-125 205 -125 205 -127.33203125 207.328125 C-130.51902871 210.51978863 -133.4404344 213.89012835 -136.375 217.3125 C-137.53104779 218.65512205 -138.6872958 219.99757174 -139.84375 221.33984375 C-140.39160156 221.97647949 -140.93945312 222.61311523 -141.50390625 223.26904297 C-143.27669182 225.3201281 -145.0739019 227.34876464 -146.875 229.375 C-149.82962739 232.73186627 -152.54497452 236.24658796 -155.2265625 239.82421875 C-157 242 -157 242 -159.35546875 244.34375 C-162.88871987 247.89265806 -166.00311543 251.73889509 -169.15820312 255.62304688 C-170.39677462 257.11787454 -171.69404891 258.56366409 -173 260 C-173.66 260 -174.32 260 -175 260 C-175.28875 260.639375 -175.5775 261.27875 -175.875 261.9375 C-177 264 -177 264 -179 265 C-181.79152266 265.30186701 -184.57855341 265.56610603 -187.375 265.8125 C-197.05153231 266.7364275 -206.43990659 268.5423483 -215.93603516 270.57470703 C-218.6123121 271.12617077 -221.3005069 271.57834005 -224 272 C-224 271.01 -224 270.02 -224 269 C-223.34 269 -222.68 269 -222 269 C-221.72220703 268.41049561 -221.44441406 267.82099121 -221.15820312 267.21362305 C-219.35192041 263.76135378 -216.91285665 260.85818598 -214.5 257.8125 C-214.00113281 257.17119141 -213.50226563 256.52988281 -212.98828125 255.86914062 C-209.25178299 251.1258915 -209.25178299 251.1258915 -207 250 C-206.731875 249.4225 -206.46375 248.845 -206.1875 248.25 C-204.61718069 245.27465815 -202.38202966 243.37162778 -200 241 C-198.60127224 239.353196 -197.22662592 237.68567795 -195.875 236 C-192.44889667 231.76440137 -188.96966596 227.58430068 -185.4375 223.4375 C-180.33434326 217.43141643 -175.37751716 211.32161309 -170.52392578 205.11132812 C-168.89589167 203.0286267 -167.26053395 200.95181448 -165.625 198.875 C-165.10043213 198.19840332 -164.57586426 197.52180664 -164.03540039 196.82470703 C-162.73609883 195.17922185 -161.373139 193.58439115 -160 192 C-159.34 192 -158.68 192 -158 192 C-157.72220703 191.4112207 -157.44441406 190.82244141 -157.15820312 190.21582031 C-155.34581635 186.74844629 -152.91246873 183.81701451 -150.5 180.75 C-150.00113281 180.1003125 -149.50226563 179.450625 -148.98828125 178.78125 C-147.70815807 177.14763436 -146.35894401 175.56865759 -145 174 C-144.34 174 -143.68 174 -143 174 C-142.773125 173.278125 -142.54625 172.55625 -142.3125 171.8125 C-140.73749376 168.43748662 -138.6491581 166.60642974 -136 164 C-134.66311572 162.43720088 -133.35128927 160.8526924 -132.0625 159.25 C-131.28390625 158.28835938 -130.5053125 157.32671875 -129.703125 156.3359375 C-129.27451172 155.80581055 -128.84589844 155.27568359 -128.40429688 154.72949219 C-125.72508409 151.42984974 -123.0166116 148.15423981 -120.3125 144.875 C-119.11457108 143.42058301 -117.91665461 141.96615576 -116.71875 140.51171875 C-114.17901466 137.42939133 -111.63699447 134.34896374 -109.09375 131.26953125 C-108.46041748 130.50205566 -107.82708496 129.73458008 -107.17456055 128.94384766 C-105.96062036 127.47285838 -104.7459733 126.0024521 -103.53051758 124.53271484 C-102.7052356 123.53232178 -102.7052356 123.53232178 -101.86328125 122.51171875 C-101.35619629 121.89731934 -100.84911133 121.28291992 -100.32666016 120.64990234 C-99.24842974 119.30895992 -98.22975338 117.92029448 -97.23046875 116.51953125 C-96.82441406 116.01808594 -96.41835938 115.51664063 -96 115 C-95.34 115 -94.68 115 -94 115 C-93.34 113.35 -92.68 111.7 -92 110 C-91.34 110 -90.68 110 -90 110 C-89.72220703 109.4112207 -89.44441406 108.82244141 -89.15820312 108.21582031 C-87.34581635 104.74844629 -84.91246873 101.81701451 -82.5 98.75 C-82.00113281 98.1003125 -81.50226563 97.450625 -80.98828125 96.78125 C-79.70815807 95.14763436 -78.35894401 93.56865759 -77 92 C-76.34 92 -75.68 92 -75 92 C-74.938125 91.443125 -74.87625 90.88625 -74.8125 90.3125 C-73.66513881 87.04693354 -71.4606869 85.42250981 -69 83 C-67.26625958 81.03671451 -65.55910702 79.06702218 -63.875 77.0625 C-63.40344482 76.50401367 -62.93188965 75.94552734 -62.44604492 75.37011719 C-58.49152423 70.65483453 -54.69841994 65.82240693 -50.92431641 60.96240234 C-47.722248 56.8599321 -44.36258252 52.95271379 -40.8515625 49.109375 C-38.20254779 46.09151014 -35.82258643 42.886542 -33.4453125 39.65234375 C-32.96835937 39.10707031 -32.49140625 38.56179688 -32 38 C-31.34 38 -30.68 38 -30 38 C-29.34 36.35 -28.68 34.7 -28 33 C-27.34 33 -26.68 33 -26 33 C-25.938125 32.443125 -25.87625 31.88625 -25.8125 31.3125 C-24.66945071 28.05920586 -22.43479491 26.43479491 -20 24 C-18.26304429 21.88531418 -16.63113075 19.69692923 -15 17.5 C-11.91017232 13.33838834 -8.72730912 9.62873565 -5 6 C-4.04399957 4.91181185 -3.10188312 3.81088497 -2.1875 2.6875 C-1.465625 1.800625 -0.74375 0.91375 0 0 Z " fill="#00A89E" transform="translate(444,465)"/>
<path d="M0 0 C0.99 0 1.98 0 3 0 C4.98929675 2.33144368 6.78108724 4.6414761 8.5625 7.125 C9.35442749 8.20467041 9.35442749 8.20467041 10.16235352 9.30615234 C14.03239842 14.59980224 17.85324473 19.93290019 21.61352539 25.30517578 C23.51289309 28.00335063 25.4728104 30.59739012 27.61328125 33.10546875 C29.65453906 35.58103673 31.23814318 37.87485728 32.75 40.6875 C33.15734375 41.43386719 33.5646875 42.18023438 33.984375 42.94921875 C35 45 35 45 36 48 C36.66 48 37.32 48 38 48 C39.5234375 50.10546875 39.5234375 50.10546875 41.375 53.1875 C41.88522705 54.03417236 41.88522705 54.03417236 42.40576172 54.89794922 C57.63441621 80.36390423 72.34282959 105.91075053 80.921875 134.44140625 C81.5744531 136.59538688 82.27930659 138.73570975 83.078125 140.83984375 C91.50355838 169.72194378 83.22365815 205.80516405 70 232 C68.30276077 234.80061345 66.54983879 237.40852108 64.54296875 239.9921875 C62.88672944 242.05312163 62.88672944 242.05312163 61.42578125 244.7578125 C60.95527344 245.49773437 60.48476563 246.23765625 60 247 C59.34 247 58.68 247 58 247 C57.87044922 247.88171875 57.87044922 247.88171875 57.73828125 248.78125 C56.79637733 251.61194539 55.48426739 252.62508785 53.1875 254.5 C50.87737444 256.4216608 48.72573394 258.28148358 46.625 260.4375 C45 262 45 262 43 262 C42.67 262.99 42.34 263.98 42 265 C39.68691929 266.47643449 37.43232372 267.74845888 35 269 C33.84371094 269.62455078 33.84371094 269.62455078 32.6640625 270.26171875 C26.71419087 273.38680905 21.72680739 274.98195778 15 277 C14.67 306.7 14.34 336.4 14 367 C10.02856452 365.01428226 6.81309742 362.62848721 3.375 359.875 C2.52615234 359.20210937 2.52615234 359.20210937 1.66015625 358.515625 C0.44692402 357.55257148 -0.74889119 356.56729963 -1.92944336 355.56445312 C-4.00554121 353.89143442 -4.00554121 353.89143442 -6.66625977 352.70117188 C-10.09822107 350.76458471 -11.82712512 349.32510917 -14 346 C-15.76677123 338.12027502 -14.97580242 329.75544756 -14.6875 321.75 C-14.64584445 319.54695627 -14.60869682 317.34382245 -14.57617188 315.140625 C-14.34681889 302.08245464 -13.73120213 289.03870093 -13 276 C-13.95144897 275.87757935 -13.95144897 275.87757935 -14.92211914 275.75268555 C-25.75768676 274.24511816 -37.42211242 267.89363289 -45 260 C-45.91523437 259.27554687 -46.83046875 258.55109375 -47.7734375 257.8046875 C-51.07594181 255.06734686 -53.57905046 251.99591776 -56.125 248.5625 C-56.54136719 248.01529297 -56.95773437 247.46808594 -57.38671875 246.90429688 C-78.31790267 219.1819608 -87.30549015 183.32784727 -82.57226562 148.88769531 C-81.47260037 142.79456871 -79.87515249 136.89615224 -78 131 C-77.79713379 130.34016113 -77.59426758 129.68032227 -77.38525391 129.00048828 C-74.45746686 119.62521031 -70.30439428 110.80211965 -66 102 C-65.68659668 101.35272949 -65.37319336 100.70545898 -65.05029297 100.03857422 C-56.50567716 82.42372057 -47.00458078 65.1179933 -35.54296875 49.21875 C-33.91042064 46.87118715 -32.4475374 44.46545808 -31 42 C-30.15230815 40.55867232 -29.29859577 39.12086004 -28.4375 37.6875 C-28.02371094 36.99011719 -27.60992188 36.29273438 -27.18359375 35.57421875 C-26.79300781 35.05472656 -26.40242187 34.53523437 -26 34 C-25.34 34 -24.68 34 -24 34 C-23.9278125 33.46632813 -23.855625 32.93265625 -23.78125 32.3828125 C-22.69109609 29.05784307 -20.63446861 26.59099566 -18.5 23.875 C-15.48590933 20.11033356 -15.48590933 20.11033356 -13 16 C-12.34 16 -11.68 16 -11 16 C-10.76152344 15.29488281 -10.52304687 14.58976563 -10.27734375 13.86328125 C-8.78215431 10.51167924 -6.87975883 8.02985197 -4.5625 5.1875 C-3.78003906 4.21167969 -2.99757813 3.23585938 -2.19140625 2.23046875 C-1.46824219 1.49441406 -0.74507812 0.75835938 0 0 Z " fill="#01A89D" transform="translate(919,555)"/>
<path d="M0 0 C5 5.10135135 5 5.10135135 5 8 C6.485 8.495 6.485 8.495 8 9 C10.29749739 11.79988348 12.12535325 14.90534505 14 18 C14.36351562 18.598125 14.72703125 19.19625 15.1015625 19.8125 C20.35246225 29.37511418 23.71027746 41.10321347 24 52 C24.08507812 53.25425781 24.17015625 54.50851562 24.2578125 55.80078125 C24.32080184 57.1587142 24.38069786 58.51679417 24.4375 59.875 C24.49808594 61.13054687 24.55867187 62.38609375 24.62109375 63.6796875 C24 67 24 67 21.40234375 69.33984375 C17.92686312 71.03568677 14.91591824 71.95717833 11.125 72.6875 C9.89523437 72.9246875 8.66546875 73.161875 7.3984375 73.40625 C-14.75046922 77.27594405 -37.99933076 73.01195484 -56.71875 60.12890625 C-58.86086382 58.46876804 -60.93713036 56.75693558 -63 55 C-64.5159375 53.8553125 -64.5159375 53.8553125 -66.0625 52.6875 C-66.701875 52.130625 -67.34125 51.57375 -68 51 C-68 50.34 -68 49.68 -68 49 C-68.56847656 48.7834375 -69.13695312 48.566875 -69.72265625 48.34375 C-79.88088795 42.34987057 -85.73647759 26.98310858 -89.15234375 16.29296875 C-91.19210103 8.36893471 -92.15006683 0.17864216 -92 -8 C-91.34 -8.33 -90.68 -8.66 -90 -9 C-88.07421875 -8.06640625 -88.07421875 -8.06640625 -85.6875 -6.5625 C-84.33591797 -5.72138672 -84.33591797 -5.72138672 -82.95703125 -4.86328125 C-81.98121094 -4.24839844 -81.00539063 -3.63351562 -80 -3 C-77.95908533 -1.74877257 -75.9173829 -0.4988294 -73.875 0.75 C-68.22622615 4.23230294 -62.59855423 7.7476519 -56.97363281 11.26831055 C-52.53236377 14.04652797 -48.08428293 16.81328145 -43.625 19.5625 C-42.06652344 20.52349609 -42.06652344 20.52349609 -40.4765625 21.50390625 C-38.11232973 22.97704231 -38.11232973 22.97704231 -36 24 C-36 24.66 -36 25.32 -36 26 C-35.34 25.67 -34.68 25.34 -34 25 C-34.7940625 24.37351562 -35.588125 23.74703125 -36.40625 23.1015625 C-37.4271875 22.28429687 -38.448125 21.46703125 -39.5 20.625 C-40.5209375 19.81289063 -41.541875 19.00078125 -42.59375 18.1640625 C-43.3878125 17.44992187 -44.181875 16.73578125 -45 16 C-45 15.34 -45 14.68 -45 14 C-45.59240479 13.72526855 -46.18480957 13.45053711 -46.79516602 13.16748047 C-48.90507388 12.05026428 -50.48680246 10.8862591 -52.27734375 9.3203125 C-52.87353516 8.80339844 -53.46972656 8.28648437 -54.08398438 7.75390625 C-54.69564453 7.21636719 -55.30730469 6.67882812 -55.9375 6.125 C-57.1542861 5.06434446 -58.37172235 4.00443424 -59.58984375 2.9453125 C-60.45585205 2.18782715 -60.45585205 2.18782715 -61.33935547 1.41503906 C-62.83324104 0.1420957 -64.38451688 -1.06275001 -65.94140625 -2.2578125 C-66.62074219 -2.83273437 -67.30007813 -3.40765625 -68 -4 C-68 -4.66 -68 -5.32 -68 -6 C-68.556875 -6.061875 -69.11375 -6.12375 -69.6875 -6.1875 C-72.98120783 -7.3447487 -74.59504754 -9.48318929 -77 -12 C-79.29933066 -14.04065596 -81.64447835 -16.02462017 -84 -18 C-83 -20 -83 -20 -80.8828125 -20.81640625 C-51.20541439 -28.84527741 -22.62353131 -20.06007363 0 0 Z M-33 26 C-32.34 26.66 -31.68 27.32 -31 28 C-31 27.34 -31 26.68 -31 26 C-31.66 26 -32.32 26 -33 26 Z " fill="#00A89E" transform="translate(713,273)"/>
<path d="M0 0 C11.82784701 0.03411059 23.86984864 0.28880422 34.53710938 6.0078125 C38.98581799 12.25117062 36.36594075 22.88710085 35.35742188 29.9609375 C32.07450405 47.94257276 21.01333658 66.80722795 6.53710938 78.0078125 C5.83199219 78.17023438 5.126875 78.33265625 4.40039062 78.5 C3.78550781 78.66757813 3.170625 78.83515625 2.53710938 79.0078125 C2.04210937 80.4928125 2.04210937 80.4928125 1.53710938 82.0078125 C-0.06445312 83.2890625 -0.06445312 83.2890625 -2.08789062 84.5078125 C-3.06628906 85.11109375 -3.06628906 85.11109375 -4.06445312 85.7265625 C-9.71003344 88.74244254 -15.54893036 90.7765936 -21.65039062 92.6328125 C-22.34841797 92.849375 -23.04644531 93.0659375 -23.765625 93.2890625 C-25.66122053 93.87343258 -27.56185963 94.44137454 -29.46289062 95.0078125 C-30.07616211 95.19102051 -30.68943359 95.37422852 -31.32128906 95.56298828 C-36.27767691 96.59246145 -41.48407273 96.23623383 -46.52539062 96.2578125 C-47.70294922 96.2784375 -48.88050781 96.2990625 -50.09375 96.3203125 C-58.23003854 96.3563337 -66.07312294 95.70269634 -73.46289062 92.0078125 C-72.07411709 88.65160979 -70.54611097 86.93482522 -67.46289062 85.0078125 C-66.80289063 85.0078125 -66.14289062 85.0078125 -65.46289062 85.0078125 C-65.46289062 84.3478125 -65.46289062 83.6878125 -65.46289062 83.0078125 C-64.25632812 82.605625 -64.25632812 82.605625 -63.02539062 82.1953125 C-62.17976562 81.8034375 -61.33414063 81.4115625 -60.46289062 81.0078125 C-59.96789062 79.5228125 -59.96789062 79.5228125 -59.46289062 78.0078125 C-55.12003348 74.0078125 -55.12003348 74.0078125 -51.46289062 74.0078125 C-51.23601563 73.43546875 -51.00914062 72.863125 -50.77539062 72.2734375 C-49.10296817 69.38651779 -47.08148878 67.81310756 -44.46289062 65.7578125 C-43.57601562 65.05140625 -42.68914063 64.345 -41.77539062 63.6171875 C-39.46289062 62.0078125 -39.46289062 62.0078125 -37.46289062 62.0078125 C-37.46289062 61.3478125 -37.46289062 60.6878125 -37.46289062 60.0078125 C-36.50382813 59.853125 -36.50382813 59.853125 -35.52539062 59.6953125 C-34.84476563 59.4684375 -34.16414062 59.2415625 -33.46289062 59.0078125 C-33.13289062 58.0178125 -32.80289063 57.0278125 -32.46289062 56.0078125 C-31.82351563 55.8634375 -31.18414063 55.7190625 -30.52539062 55.5703125 C-28.27079541 55.21218217 -28.27079541 55.21218217 -27.27539062 53.0078125 C-27.00726562 52.3478125 -26.73914063 51.6878125 -26.46289062 51.0078125 C-26.13289062 50.6778125 -25.80289063 50.3478125 -25.46289062 50.0078125 C-35.05479228 55.14272526 -44.46966493 60.34818037 -53.63867188 66.21484375 C-74.89496214 79.70950106 -74.89496214 79.70950106 -81.46289062 81.0078125 C-81.91571578 61.51117402 -74.59321272 44.91552732 -62.46289062 30.0078125 C-61.81449219 29.19828125 -61.16609375 28.38875 -60.49804688 27.5546875 C-47.77784047 12.48941511 -29.06735757 2.12909234 -9.33789062 0.1328125 C-6.22268478 0.00882421 -3.1170991 0.00988771 0 0 Z " fill="#00A79D" transform="translate(701.462890625,25.9921875)"/>
<path d="M0 0 C1.67078627 1.17358854 3.31904184 2.38023899 4.9375 3.625 C5.65164063 4.17027344 6.36578125 4.71554688 7.1015625 5.27734375 C19.53766817 15.4807123 26.70636802 28.74146516 28.9375 44.625 C29.23212845 49.62769532 29.12445244 54.6188291 28.9375 59.625 C11.54547085 65.65610688 -4.89818853 66.11106519 -22.0625 58.625 C-38.88702237 49.64125368 -49.72937699 36.3760958 -55.265625 18.26953125 C-56.41869276 12.99594191 -56.5119143 7.9880106 -56.0625 2.625 C-52.06957129 4.07830861 -48.65835467 5.9936012 -45.0625 8.25 C-43.91148183 8.96748562 -42.76043946 9.6849324 -41.609375 10.40234375 C-41.02349609 10.76956543 -40.43761719 11.13678711 -39.83398438 11.51513672 C-32.01715904 16.41250276 -24.19046209 21.25648291 -16.0625 25.625 C-18.14465303 23.85276281 -20.22816919 22.08217274 -22.3125 20.3125 C-23.19228516 19.56323242 -23.19228516 19.56323242 -24.08984375 18.79882812 C-26.51150315 16.74449908 -28.89874887 14.74200282 -31.484375 12.89453125 C-32.00515625 12.47558594 -32.5259375 12.05664062 -33.0625 11.625 C-33.0625 10.965 -33.0625 10.305 -33.0625 9.625 C-33.58328125 9.40714844 -34.1040625 9.18929688 -34.640625 8.96484375 C-38.03239898 7.08842685 -40.85582092 4.67955808 -43.8125 2.1875 C-44.41449219 1.69701172 -45.01648438 1.20652344 -45.63671875 0.70117188 C-47.17233123 -0.58895153 -48.6247092 -1.97668612 -50.0625 -3.375 C-50.0625 -4.365 -50.0625 -5.355 -50.0625 -6.375 C-33.22455012 -11.13396654 -15.03003554 -9.15860487 0 0 Z " fill="#00A79D" transform="translate(556.0625,248.375)"/>
<path d="M0 0 C0.52069858 15.8813068 -3.75143978 30.07303515 -13 43 C-13.4228125 43.59683594 -13.845625 44.19367188 -14.28125 44.80859375 C-19.60635974 51.73483446 -27.35304675 56.08423256 -35 60 C-35.68578125 60.37253906 -36.3715625 60.74507813 -37.078125 61.12890625 C-50.65696491 67.94347221 -65.57964601 66.26837029 -80 64 C-80.33 62.68 -80.66 61.36 -81 60 C-80.38125 59.9175 -79.7625 59.835 -79.125 59.75 C-76.81562433 59.18741541 -76.81562433 59.18741541 -75.75 56.9375 C-75.37875 55.9784375 -75.37875 55.9784375 -75 55 C-74.01 55 -73.02 55 -72 55 C-71.80277344 54.44699219 -71.60554687 53.89398438 -71.40234375 53.32421875 C-69.42305668 50.04378474 -66.58806197 48.06431169 -63.5625 45.8125 C-62.97662109 45.36197266 -62.39074219 44.91144531 -61.78710938 44.44726562 C-59.21126726 42.49711047 -57.08544696 41.02848232 -54 40 C-53.67 39.01 -53.34 38.02 -53 37 C-52.01 36.67 -51.02 36.34 -50 36 C-49.67 35.01 -49.34 34.02 -49 33 C-49.8971875 33.804375 -49.8971875 33.804375 -50.8125 34.625 C-54.2706575 37.20166638 -57.81587478 39.12866643 -61.6171875 41.1484375 C-66.51215618 43.82766978 -71.29226712 46.69588552 -76.07324219 49.57275391 C-79.63797241 51.69721413 -83.06768202 53.61212307 -87 55 C-86.75466681 38.87491866 -82.52981657 26.12492005 -71.3125 14.125 C-70.549375 13.42375 -69.78625 12.7225 -69 12 C-68.278125 11.236875 -67.55625 10.47375 -66.8125 9.6875 C-65 8 -65 8 -63 8 C-62.67 7.01 -62.34 6.02 -62 5 C-59.386791 3.49695838 -56.85601359 2.18861121 -54.125 0.9375 C-53.34850098 0.58042969 -52.57200195 0.22335938 -51.77197266 -0.14453125 C-36.03711272 -7.15378529 -15.64198118 -7.82099059 0 0 Z " fill="#00A79D" transform="translate(586,81)"/>
<path d="M0 0 C10.56 0 21.12 0 32 0 C32 9.9 32 19.8 32 30 C21.44 30 10.88 30 0 30 C0 20.1 0 10.2 0 0 Z " fill="#00A79D" transform="translate(459,666)"/>
<path d="M0 0 C10.56 0 21.12 0 32 0 C32 9.9 32 19.8 32 30 C21.44 30 10.88 30 0 30 C0 20.1 0 10.2 0 0 Z " fill="#00A79D" transform="translate(409,666)"/>
<path d="M0 0 C10.56 0 21.12 0 32 0 C32 9.9 32 19.8 32 30 C21.44 30 10.88 30 0 30 C0 20.1 0 10.2 0 0 Z " fill="#00A89D" transform="translate(459,625)"/>
<path d="M0 0 C10.56 0 21.12 0 32 0 C32 9.9 32 19.8 32 30 C21.44 30 10.88 30 0 30 C0 20.1 0 10.2 0 0 Z " fill="#00A89D" transform="translate(409,625)"/>
<path d="M0 0 C0.33 0 0.66 0 1 0 C1 89.76 1 179.52 1 272 C-0.84476692 268.31046616 -1.24993469 267.23640177 -1.24888897 263.39599609 C-1.25578716 262.00832535 -1.25578716 262.00832535 -1.26282471 260.59262085 C-1.25510937 259.07337509 -1.25510937 259.07337509 -1.24723816 257.5234375 C-1.24965257 256.44478424 -1.25206699 255.36613098 -1.25455457 254.25479126 C-1.26020557 250.62813322 -1.25151774 247.00165022 -1.24291992 243.375 C-1.24399246 240.77994743 -1.24593071 238.18489509 -1.24867249 235.58984375 C-1.25371565 229.26568552 -1.24807137 222.94157956 -1.23882218 216.61742783 C-1.22844135 209.25502725 -1.22850829 201.892638 -1.22899476 194.53023148 C-1.22949549 181.39514328 -1.22033111 168.26007942 -1.20581055 155.125 C-1.19172294 142.37499549 -1.18463977 129.6250124 -1.18530273 116.875 C-1.18536267 115.69711851 -1.18536267 115.69711851 -1.18542381 114.49544144 C-1.18546417 113.71155422 -1.18550452 112.92766701 -1.1855461 112.12002563 C-1.18623579 97.61127896 -1.18034673 83.1025414 -1.17139288 68.59379768 C-1.1683752 63.45999243 -1.16731316 58.32618885 -1.16686058 53.19238281 C-1.16610758 46.28465781 -1.15976762 39.37695586 -1.14969444 32.46923828 C-1.14676724 29.92952615 -1.14554452 27.38981141 -1.14612198 24.85009766 C-1.14661078 21.39222836 -1.14097551 17.93442292 -1.13371277 14.4765625 C-1.13526137 13.46373199 -1.13680997 12.45090149 -1.1384055 11.40737915 C-1.13518106 10.48226532 -1.13195661 9.55715149 -1.12863445 8.60400391 C-1.12793003 7.80572174 -1.1272256 7.00743958 -1.12649983 6.18496704 C-1.00027808 4.00480315 -0.60181088 2.09458046 0 0 Z " fill="#00948F" transform="translate(1140,538)"/>
<path d="M0 0 C0.66 0.66 1.32 1.32 2 2 C-0.97 2 -3.94 2 -7 2 C-7 1.34 -7 0.68 -7 0 C-3.98968256 -0.93423645 -3.13349732 -1.04449911 0 0 Z " fill="#72C04E" transform="translate(229,736)"/>
</svg>
